<?xml version="1.0" standalone="no"?>
<!DOCTYPE svg PUBLIC "-//W3C//DTD SVG 1.1//EN" "http://www.w3.org/Graphics/SVG/1.1/DTD/svg11.dtd" >
<svg>
<metadata>
Created by FontForge 20090914 at Fri Feb 24 04:23:35 2012
 By root
Copyright (c) Typographer Mediengestaltung, 2000. All rights reserved.
</metadata>
<defs>
<font id="OldLondonAlternate" horiz-adv-x="396" >
  <font-face 
    font-family="Old London Alternate"
    font-weight="400"
    font-stretch="normal"
    units-per-em="1000"
    panose-1="2 0 5 3 2 0 0 2 0 4"
    ascent="800"
    descent="-200"
    x-height="466"
    cap-height="657"
    bbox="-97 -233 1415 904"
    underline-thickness="20"
    underline-position="-123"
    unicode-range="U+001A-U+E00C"
  />
<missing-glyph horiz-adv-x="500" 
d="M63 0h375v904h-375v-904zM125 63v779h250v-779h-250z" />
    <glyph glyph-name=".notdef" horiz-adv-x="500" 
d="M63 0h375v904h-375v-904zM125 63v779h250v-779h-250z" />
    <glyph glyph-name="fi" horiz-adv-x="439" 
d="M396 614h-74l-24 -102h13zM412 69l-10 9l-18 -12q-23 12 -28 32v277l25 28l-60 50h-166v102l86 -18l20 69l-96 23q-57 -51 -109 -74v-102h-44l-9 -51h51v-257q0 -47 -25 -72q90 -35 144 -76l87 78q8 -50 61 -80zM259 114l-1 -19l-31 -25l-72 46v286h104v-288z" />
    <glyph glyph-name="fl" horiz-adv-x="487" 
d="M476 75l-12 13l-24 -18l-73 46v421q0 54 49 90q-57 -8 -100 -46q-47 -41 -47 -97v-339q0 -56 -42 -75l-72 46v286h68l7 51h-75v102l86 -18l20 69l-96 23q-57 -51 -109 -74v-102h-44l-9 -51h51v-257q0 -47 -25 -72q90 -35 144 -76l81 72q84 -31 131 -72z" />
    <glyph glyph-name="Lslash" horiz-adv-x="612" 
d="M287 198q-29 -70 -118 -139l-3 3q44 69 64 115zM506 398l-27 -10l-18 -41l-75 -27q2 17 3.5 36.5t1.5 40.5v47q0 8 -1 20t-3 28q-2 17 -3 29t-1 20q0 91 93 105l-2 7q-89 0 -130 -37q-44 -41 -44 -127l1 -9q0 -28 3 -83q2 -28 3 -48.5t1 -34.5v-12t-1 -11l-57 -21
q1 8 1 17v18q0 11 -1 32t-1 32q0 10 -1 23.5t-3 32.5t-3 32.5t-1 22.5q0 97 82 167l-3 5q-16 -7 -25.5 -10.5t-11.5 -4.5q-21 -6 -41 -6q-16 0 -58 12q-39 13 -67 13h-8q-94 0 -116 -105l7 -6q28 43 59 43q7 0 17.5 -2t26.5 -6q34 -8 48 -8q45 0 89 27q-41 -47 -60 -88
q-21 -46 -19 -94l2 -48q-11 4 -18 4h-17q-49 0 -67 -41l24 1q38 2 61.5 -19.5t23.5 -58.5l-1 -6q-22 5 -38 5q-24 0 -45 -18q22 -3 40 -11l-87 -32l-48 -131l30 11l19 34l130 48v-11q-11 -68 -108 -144l6 -10q120 56 213 56q110 0 195 -70l110 105l-15 14q-25 -22 -34 -22
q-7 0 -20 9q-11 8 -20 13l-16 9q-40 22 -94 22q-56 0 -146 -28l-2 4q83 59 116 120l104 38z" />
    <glyph glyph-name="lslash" horiz-adv-x="299" 
d="M216 392l-13 -6v-36l-42 -20v207q0 55 49 91q-57 -8 -103 -51l-11 -1q-29 23 -67 32q34 -34 34 -64v-259l-59 -25l-1 -121l14 3v30l46 23v-50q0 -43 -26 -72q95 -35 142 -76l91 78l-12 13l-24 -18l-73 46v125l56 27z" />
    <glyph glyph-name="Zcaron" horiz-adv-x="568" 
d="M538 108l-15 11l-32 -36q-73 35 -150 35q-60 0 -129 -22q-26 -8 -58 -20.5t-70 -29.5l-2 4q78 67 136.5 125.5t96.5 109.5h131l14 31h-123l29 47h116l15 32h-110q35 75 69.5 136.5t68.5 110.5l-4 5q-113 -36 -183 -36q-82 0 -190 44l-47 -58q-12 -15 -24 -28.5l-24 -26.5
l14 -13l31 32q65 -25 132 -25q109 0 239 73q-138 -123 -212 -215h-130l-13 -32h120l-30 -47h-114l-14 -31h111l-74.5 -127l-31.5 -54q-19 -29 -37.5 -54.5t-35.5 -46.5l6 -5q125 46 213 46h11q79 0 202 -53l43.5 54t19.5 23zM422 857l-15 11q-62 -34 -117 -101
q-45 58 -119 102l-13 -12q65 -77 108 -154h50q44 75 106 154z" />
    <glyph glyph-name="zcaron" horiz-adv-x="281" 
d="M250 156q0 53 -42 83q-38 26 -92 26l122 122q-28 4 -64 34l-30 26.5t-21 19.5l-123 -83l9 -14l55 36l85 -80l-140 -137q37 8 65 8q39 0 60.5 -17.5t21.5 -54.5q0 -29 -15 -51q-10 -16 -43 -44l-48 -39q-21 -23 -21 -55q0 -29 19.5 -48.5t48.5 -19.5q26 8 26 19t-15 11
q-6 0 -19 -3t-19 -3q-32 9 -32 38q0 34 33 54l82.5 45.5l33.5 19.5q63 40 63 107zM274 684l-15 11q-62 -34 -117 -101q-45 58 -119 102l-13 -12q65 -77 108 -154h50q44 75 106 154z" />
    <glyph glyph-name="space" unicode=" " horiz-adv-x="322" 
 />
    <glyph glyph-name="exclam" unicode="!" horiz-adv-x="180" 
d="M156 569l-75 86l-74 -86q13 -45 24 -91.5t19 -97.5q12 -71 24 -189h16q12 114 24 190q17 107 42 188zM156 69q-55 54 -74 80l-82 -76q34 -47 75 -78z" />
    <glyph glyph-name="quotedbl" unicode="&#x22;" horiz-adv-x="265" 
d="M247 653v14q0 21 -11 37.5t-31 16.5q-43 0 -43 -54l38 -238h14zM103 653v14q0 20 -11.5 37t-30.5 17q-38 0 -38 -51v-17l32 -224h15z" />
    <glyph glyph-name="numbersign" unicode="#" horiz-adv-x="556" 
d="M363 213q75 0 94 -4q2 39 16 72q-19 -2 -42 -3t-51 -1l26 102q66 0 89 -4q1 31 18 72q-16 -2 -38.5 -3t-51.5 -1q13 50 30.5 103.5t40.5 113.5q-20 -4 -43 -4q-25 0 -42 4l-18 -90.5t-28 -127.5q-15 -1 -29 -1.5t-27 -0.5q-8 0 -20 0.5t-27 1.5q11 46 29 100t42 118
q-20 -4 -43 -4q-25 0 -42 4q-6 -34 -17.5 -88l-28.5 -129q-75 0 -94 4q-1 -19 -5 -37t-11 -35q20 2 43 3t50 1l-26 -102q-66 0 -89 4q-2 -32 -18 -72q16 2 38.5 3t51.5 1q-13 -50 -30.5 -103.5t-40.5 -112.5q22 3 43 3q22 0 42 -3l18 89.5t28 127.5q15 1 29 1.5t27 0.5
q8 0 20 -0.5t27 -1.5q-11 -45 -29 -99t-42 -118q22 3 43 3q22 0 42 -3q6 33 17.5 87zM265 274q-8 0 -20.5 0.5t-28.5 1.5l27 104q17 1 30.5 1.5t24.5 0.5q8 0 20.5 -0.5t28.5 -1.5l-27 -104q-17 -1 -30.5 -1.5t-24.5 -0.5z" />
    <glyph glyph-name="dollar" unicode="$" horiz-adv-x="440" 
d="M414 242v5q0 97 -75 163q-49 -34 -109 -63v184l103 -24l31 75l-134 30v67h-49v-63q-33 -4 -63 -17t-53 -33.5t-39 -47.5t-22 -60q-4 -19 -4 -30v-12q0 -51 22.5 -98.5t61.5 -75.5l49 28q10 5 21.5 12.5l25.5 16.5l1 -208l-152 35l-29 -72l181 -45v-109h48v99
q185 101 185 243zM181 324l-18 -4q-47 0 -75 55q-23 48 -23 97q0 55 23 89l93 -21v-216zM336 217q0 -95 -49 -154l-57 13l-1 245q30 8 35 8q37 0 57 -39q15 -32 15 -73z" />
    <glyph glyph-name="percent" unicode="%" horiz-adv-x="677" 
d="M656 188l-3 37q-11 53 -51 89q-28 25 -89 52q-63 -40 -97 -83q-44 -56 -44 -117l2 -7q0 -114 151 -162q78 58 108 106q26 44 23 85zM530 618h-51l-358 -621h51zM279 441l-1 34q-11 54 -51 90q-32 27 -89 52q-138 -78 -138 -197v-9q0 -112 147 -167q63 48 92 86
q42 55 40 111zM605 153q0 -57 -41 -98q-58 10 -99 53q-40 41 -40 100q0 60 43 103q90 -17 126 -101q11 -39 11 -57zM230 403q0 -54 -44 -96q-58 10 -97 52t-39 99q0 56 44 105q93 -21 125 -104q11 -30 11 -56z" />
    <glyph glyph-name="ampersand" unicode="&#x26;" horiz-adv-x="633" 
d="M599 272l-2 3l-17 -2q-48 0 -85 36l-119 -97l-94 166l33 26.5l20 16.5q51 46 61 88l4 33q0 62 -72 113l-188 -96q-43 -27 -43 -56q0 -14 10 -27l83 -145l-185 -148l126 -193l175 142q34 -62 61 -89q41 -41 95 -41l3 2q104 0 133 111l-6 3q-31 -34 -79 -34q-55 0 -94 56
q-5 8 -13 22l-19 34l61 47q34 -30 66 -30q47 0 85 59zM333 492l-3 -29q-5 -20 -24 -38q-7 -7 -35 -29l-57 105q-10 17 -10 33q0 22 16 38t38 16q26 0 46 -17q29 -32 29 -79zM295 152l-93 -76l-102 159l102 78z" />
    <glyph glyph-name="quotesingle" unicode="'" horiz-adv-x="158" 
d="M137 586l-45 42t-26 27l-71 -71q41 -41 41 -67q0 -23 -40 -62l14 -19q91 55 127 150z" />
    <glyph glyph-name="parenleft" unicode="(" horiz-adv-x="265" 
d="M238 9l-13 11l-24 -23q-122 169 -122 364q0 219 144 416l-10 9q-98 -107 -153 -246q-56 -141 -56 -281q0 -222 140 -382z" />
    <glyph glyph-name="parenright" unicode=")" horiz-adv-x="265" 
d="M234 402q0 225 -139 382l-94 -132l13 -11l24 24q119 -170 119 -365q0 -219 -141 -412l12 -12q95 107 151 246q55 137 55 280z" />
    <glyph glyph-name="asterisk" unicode="*" horiz-adv-x="330" 
d="M303 479l-40 59q-27 -11 -74 -11h-26q38 41 88 55l-6 71l-71 -16v-9q0 -47 -22 -87q-26 50 -26 92l2 8l-68 16l-6 -75q42 -11 82 -51q-5 0 -15 -2.5t-15 -2.5q-20 0 -63 12l-38 -62l66 -28q23 39 83 70q-20 -66 -47 -93l46 -59l48 50q-24 36 -36 94q49 -30 75 -62z" />
    <glyph glyph-name="plus" unicode="+" horiz-adv-x="483" 
d="M459 270v67h-180v186h-69v-186h-181v-67h181v-186h69v186h180z" />
    <glyph glyph-name="comma" unicode="," horiz-adv-x="180" 
d="M156 77l-27.5 26l-18.5 18q-9 10 -15.5 16.5l-11.5 11.5l-76 -72q45 -47 45 -71q0 -25 -45 -64l18 -20q93 60 131 155z" />
    <glyph glyph-name="hyphen" unicode="-" horiz-adv-x="286" 
d="M256 314h-12l-13 -33h-187l-38 -107h14l12 26h186z" />
    <glyph glyph-name="period" unicode="." horiz-adv-x="180" 
d="M153 69q-14 13 -33 32.5t-43 47.5l-79 -76q31 -44 73 -78z" />
    <glyph glyph-name="slash" unicode="/" horiz-adv-x="330" 
d="M310 656h-52l-255 -744h48z" />
    <glyph glyph-name="zero" unicode="0" horiz-adv-x="418" 
d="M401 316l-1 26q-1 10 -1.5 19.5t-2.5 19.5q-13 85 -68 144q-46 48 -133 92q-198 -137 -198 -326v-19q0 -98 66 -180q52 -64 148 -95q46 38 80 73.5t56 68.5q54 82 54 177zM336 269q0 -104 -62 -187q-69 16 -120 61q-21 19 -38.5 44t-29.5 53t-18.5 58t-6.5 60
q0 87 66 182q71 -19 127 -69q82 -75 82 -202z" />
    <glyph glyph-name="one" unicode="1" horiz-adv-x="286" 
d="M267 94l-12 12l-38 -33l-41 32v383q0 57 -28 89q-10 12 -45 40l-107 -92l10 -13l38 31q41 -35 41 -76v-345q0 -25 -27 -47l102 -78z" />
    <glyph glyph-name="two" unicode="2" horiz-adv-x="440" 
d="M413 80q-67 37 -150 37q-82 0 -200 -44q47 64 147 125q108 67 136 97q60 64 60 169v21l-214 132l-172 -140l61 -62l169 134q55 -49 55 -115q0 -40 -23 -84q-26 -47 -75 -93l-44 -39.5l-45 -39.5q-92 -83 -112 -180q90 34 171 34q79 0 166 -34z" />
    <glyph glyph-name="three" unicode="3" horiz-adv-x="440" 
d="M409 173v5q0 97 -147 147q124 58 124 156v17q0 5 -0.5 8.5t-1.5 7.5l-200 100l-139 -104l55 -58l118 88q16 12 32 12q38 0 38 -57v-4q0 -141 -169 -157v-21h23q91 0 133 -49q35 -41 35 -103q0 -77 -51 -129l-189 161l-65 -64l157 -132q51 4 91 15t71 28q85 46 85 133z
" />
    <glyph glyph-name="four" unicode="4" horiz-adv-x="440" 
d="M416 198l-20 73h-84v242q0 63 -72 104l-243 -334l25 -84h203v-68q0 -29 -34 -66l106 -68l92 84l-9 13l-30 -23l-39 28v99h105zM223 271h-199l-4 12l179 241q7 -6 10.5 -10.5t5.5 -6.5q8 -11 8 -19v-217z" />
    <glyph glyph-name="five" unicode="5" horiz-adv-x="418" 
d="M389 234q4 61 -39 121q-40 51 -106 77l-172 -116l29 202h225l27 86h-262l-52 -337l136 90q62 -21 103 -63q47 -47 47 -108q0 -73 -67 -140l-200 119l-57 -64l173 -104q88 18 140 64q66 57 72 136z" />
    <glyph glyph-name="six" unicode="6" horiz-adv-x="418" 
d="M400 248q0 112 -117 163l-196 -129l-3 24q0 139 81 234l145 -78l60 75l-156 80q-214 -157 -214 -354q0 -100 57 -170q54 -67 152 -96q66 43 98 74q93 85 93 177zM327 186q0 -65 -60 -111q-75 19 -116.5 62.5t-60.5 121.5l95 65q13 8 29 8q46 0 80 -52q33 -47 33 -94z" />
    <glyph glyph-name="seven" unicode="7" horiz-adv-x="419" 
d="M401 584v20h-321q-48 -104 -74 -148l11 -9q34 40 90 72h215q-231 -249 -253 -521l115 43q0 158 57 292q49 115 160 251z" />
    <glyph glyph-name="eight" unicode="8" horiz-adv-x="418" 
d="M390 225q0 101 -115 141q38 18 63 46q31 34 30 69l-1 22q-27 99 -205 115q-28 -23 -50 -45.5t-39 -44.5q-52 -64 -54 -112l-1 -19q-5 -72 87 -102q-105 -78 -105 -154q0 -21 8 -42q43 -102 190 -102h9q183 102 183 228zM313 442q0 -22 -17 -42q-7 -8 -37 -32
q-26 4 -49.5 7t-43.5 6q-96 15 -96 72q0 32 35 82q188 0 208 -80v-13zM352 169q0 -43 -39 -65q-38 -23 -88 -23q-56 0 -105 27q-58 31 -58 84q0 50 59 101q85 -14 99 -18q58 -15 92 -37q40 -27 40 -69z" />
    <glyph glyph-name="nine" unicode="9" horiz-adv-x="418" 
d="M395 344v4q0 202 -207 270q-38 -26 -66 -48.5t-47 -41.5q-77 -80 -77 -167q0 -109 116 -163l194 133l2 -26q4 -57 -18 -127q-18 -59 -61 -104l-146 73l-59 -73l155 -78q214 154 214 348zM306 353l-94 -64q-14 -10 -32 -10q-47 0 -82 50q-33 46 -33 94q0 71 62 113
q39 -9 68 -24t50 -37t35.5 -52t25.5 -70z" />
    <glyph glyph-name="colon" unicode=":" horiz-adv-x="180" 
d="M153 370l-40 40l-36 42l-79 -77q31 -44 72 -81zM153 69q-14 13 -33 32.5t-43 47.5l-79 -76q31 -44 73 -78z" />
    <glyph glyph-name="semicolon" unicode=";" horiz-adv-x="180" 
d="M157 370q-38 41 -70 82l-83 -77q17 -23 35.5 -42.5t38.5 -36.5zM150 78q-52 46 -71 71l-77 -72q42 -45 42 -71q0 -27 -42 -64l18 -20q97 61 130 156z" />
    <glyph glyph-name="less" unicode="&#x3c;" horiz-adv-x="611" 
d="M578 36v70l-481 198l481 195v73l-576 -238v-60z" />
    <glyph glyph-name="equal" unicode="=" horiz-adv-x="611" 
d="M589 369v65h-589v-65h589zM589 174v63h-589v-63h589z" />
    <glyph glyph-name="greater" unicode="&#x3e;" horiz-adv-x="611" 
d="M578 274v60l-576 238v-73l484 -195l-484 -198v-70z" />
    <glyph glyph-name="question" unicode="?" horiz-adv-x="286" 
d="M261 514q1 30 -12.5 57.5t-35.5 47t-50 29.5t-57 6l-48 -3l-56 -109q66 27 89 27q34 0 54.5 -21.5t20.5 -55.5q0 -36 -19 -92q-11 -34 -18.5 -55t-9.5 -31q-15 -51 -12 -86l3 -38h21q0 91 53 167q63 90 75 132q1 4 1.5 10t0.5 15zM192 69q-55 54 -74 80l-80 -76
q29 -44 73 -78z" />
    <glyph glyph-name="at" unicode="@" horiz-adv-x="893" 
d="M862 383q0 128 -78 217q-78 87 -204 109q-23 4 -46 6t-46 2q-207 0 -349 -141q-131 -131 -131 -312q0 -169 121 -283t313 -114t344 108l-13 17q-143 -99 -321 -99q-208 0 -320 145q-67 86 -67 214q0 170 100 291q124 151 333 151q24 0 42 -1t30 -3q121 -20 194 -99
q77 -83 77 -202v-6q0 -85 -36 -158q-19 -40 -45.5 -69.5t-60.5 -49.5q-35 -20 -63 -20q-46 0 -46 56q0 18 8 48l83 300h-71l-25 -86l-4 1q-24 93 -108 93q-88 0 -163 -81t-75 -169l-2 -20q0 -63 32 -110q36 -53 96 -53l6 -2q93 0 155 110q13 -112 103 -112q54 0 113 46
q124 94 124 276zM558 378q0 -79 -43 -169q-59 -123 -132 -123q-25 0 -45 19q-31 27 -31 78q0 12 3 27q15 93 57 171q49 90 105 96h12q74 0 74 -99z" />
    <glyph glyph-name="A" unicode="A" horiz-adv-x="611" 
d="M581 82l-15 16l-32 -24q-28 27 -30 98l-8 339q-1 43 22 82q8 13 22 29t34 35l-2 2q-63 -15 -113 -72q-96 66 -201 66q-104 0 -173 -70q-69 -71 -69 -156l2 -22q8 -83 106 -174l-89 -132q-35 -53 -35 -83q0 -26 22 -26q24 0 24 21q0 7 -5 20t-5 19q0 12 8.5 20.5t19.5 8.5
q16 0 42 -14l142 -75l146 109q18 -77 73 -111zM391 283h-197l169 249h8l20 -29v-220zM342 551l-24 -36q-26 6 -57 6q-49 0 -79 -24q-33 -27 -33 -74q23 39 60 43l16 2q29 0 44 -24l-133 -195q-88 70 -88 157q0 75 56 123q52 46 129 46q52 0 109 -24zM395 133l-84 -68
l-204 94l37 54h251v-80z" />
    <glyph glyph-name="B" unicode="B" horiz-adv-x="684" 
d="M653 99v182q0 96 -132 110l20.5 21l17.5 18q72 73 72 133q0 63 -51 93q-20 12 -50 12q-31 0 -82 -17q-88 -29 -122 -75q-35 -47 -35 -135v-169q0 -129 -131 -210l-3 3q46 58 63 106q16 45 16 123v156q0 82 31 128q27 42 101 86q-75 -21 -99 -21h-5q-19 0 -88 19
q-32 8 -54 8q-47 0 -82 -35q-31 -31 -40 -80q27 42 64 42l24 -3q2 -1 12 -4t27 -9q25 -9 40 -9q20 0 55 13l2 -4q-98 -78 -98 -185q-44 0 -77 -21q-35 -24 -44 -65q33 15 65 15q25 0 36 -6q42 -17 38 -66l-1 -13q-83 -20 -83 -81l2 -19q23 27 53 32q29 0 29 -30v-8
q-6 -40 -38 -78l-33 -36.5t-24 -25.5q-27 -41 -27 -68q0 -26 23 -34h5q23 0 23 21q0 9 -5.5 27t-5.5 27l2 7q5 31 57 47q37 12 79 12q59 0 124 -20l28.5 -9l44.5 -15q81 48 121 67q58 26 135 43zM543 298l-1 -13q-36 -12 -51 -12q-2 0 -15 2.5l-38 7.5v49q34 28 56 39
q33 -13 41 -28q10 -18 8 -45zM535 498q0 -82 -97 -136v103h-19v-360q-34 10 -83 10q-37 0 -91 -9l-1 4q82 45 108 86q27 40 27 132v195q0 78 77 95q79 -45 79 -120zM542 190q-15 3 -28 3h-37q-20 0 -39 -3v75l28.5 -3.5t22.5 -1.5q13 0 26 1.5t27 3.5v-75zM542 104
q-17 -8 -29.5 -14.5l-20.5 -10.5q-20 6 -54 18v76q28 4 40 5.5t8 1.5q26 0 56 -10v-66z" />
    <glyph glyph-name="C" unicode="C" horiz-adv-x="583" 
d="M566 165l-5 1l-49.5 -37t-20.5 -15q-59 -39 -122 -39q-8 0 -24 2.5t-24 2.5v474l70.5 -24.5t66.5 -25.5l86 94q-102 0 -196 57l-194 -164v-238q0 -50 -14 -76q-61 80 -61 171q0 145 121 245q-94 -31 -149 -121q-51 -84 -51 -188q0 -88 41 -161q37 -64 109 -101
q67 -32 145 -32q18 0 34.5 1.5t31.5 3.5q130 21 205 170zM297 83q-92 22 -144 84q54 48 74 79q27 43 27 101v188l43 35v-487z" />
    <glyph glyph-name="D" unicode="D" horiz-adv-x="743" 
d="M711 211q0 108 -15 183q-44 217 -210 234q-32 3 -43 3h-40q-23 0 -57.5 -2t-80.5 -6t-80 -6t-57 -2l-5 -1q-32 0 -60.5 17.5t-40.5 46.5l-1 -19q-2 -38 16 -72q18 -35 49.5 -50.5t88.5 -15.5q21 0 62 3q42 3 63 3q-74 -44 -108 -96q-39 -57 -46 -137l-29 1q-46 2 -76 -20
q-34 -22 -40 -66q29 29 63 29q17 0 31 -7q35 -18 35 -73q0 -62 -100 -155l4 -4q81 55 105 75q117 94 117 210v130q0 47 23 75q19 22 68 43q-28 -49 -28 -96l2 -11v-164q0 -104 -105 -179l-108 -70l-78 -48l5 -10q145 81 287 81q105 0 225 -42q42 36 82 62.5t78 43.5
q0 10 0.5 23.5t1.5 32.5t1.5 32.5t0.5 23.5zM589 375q-39 -41 -91 -41t-88 41v156q85 0 127 -36t52 -120zM598 219q-38 24 -85 24t-103 -25v127q43 -27 88 -27q52 0 93 28q4 -26 5.5 -54t1.5 -57v-16zM389 135l-90 1q41 47 41 128v164q0 66 25 104l24 -1v-396zM599 190
l-2 -91q-48 13 -94.5 21t-93.5 13v57q42 39 96 39q55 0 94 -39z" />
    <glyph glyph-name="E" unicode="E" horiz-adv-x="580" 
d="M566 165l-5 1q-114 -90 -203 -90l-37 4l1 273h157l49 103h-106l137 148l-12 -1q-43 -4 -109 12q-52 12 -93 40l-191 -164v-238q0 -50 -14 -76q-62 80 -62 170q0 69 33.5 135t88.5 111q-94 -31 -149 -121q-51 -84 -51 -188q0 -88 41 -161q37 -64 109 -101q67 -32 145 -32
q18 0 34.5 1.5t31.5 3.5q130 21 205 170zM437 504l-116 -126v173zM297 83q-91 24 -143 84q51 43 72 78q28 44 28 102v188l43 35v-487z" />
    <glyph glyph-name="F" unicode="F" horiz-adv-x="616" 
d="M553 527q55 0 95 35q36 31 48 89q-51 -22 -105 -22q-56 0 -119 29l-73 -53t-47 -29q-57 -28 -143 -28v-94q-77 0 -128 -30q-62 -38 -62 -108h5q43 52 114 49l71 -3v-287q0 -87 -30 -120q-14 -15 -24 -15h-6q-5 2 -23 12l-49 28q-44 24 -74 24q-20 0 -45 -11
q-55 -34 -55 -129h4q15 50 49 50q3 -1 20 -5.5t49 -14.5q29 -8 53 -8q28 0 40 4l133 40q115 35 157 92q44 58 46 176l1 164h112l29 92h-141v97q49 -24 98 -24zM363 178q0 -47 -8.5 -83.5t-27.5 -64.5t-49.5 -48.5t-73.5 -35.5l-2 4q61 49 84 114q17 51 17 141v323
q15 2 22.5 3.5t8.5 1.5q16 4 29 10v-365z" />
    <glyph glyph-name="G" unicode="G" horiz-adv-x="655" 
d="M623 284v5q0 141 -179 197l147 115l-1 3l-59 -4q-81 -6 -184 52l-165 -115q-74 -51 -126 -132q-59 -92 -54 -171l2 -31q4 -60 45 -117q70 -96 212 -96q134 0 242 78q120 87 120 216zM433 503l-168 -134v199zM537 272q-60 -33 -103 -33q-42 0 -103 30v101q34 12 72 12
q54 0 90 -29t44 -81zM544 234q0 -39 -17 -79q-41 21 -94 21q-47 0 -101 -18v87q64 -23 99 -23q45 0 111 29zM520 137q-69 -105 -189 -105v105q64 21 102 21q42 0 87 -21zM165 180q0 -23 -16 -33q-51 66 -51 161q0 110 65 173zM309 33q-83 15 -150 91l45 38.5l33 28.5
q27 24 27 90v59q26 15 45 20v-327z" />
    <glyph glyph-name="H" unicode="H" horiz-adv-x="699" 
d="M668 283v28q0 78 -27 129q-13 23 -35 47.5t-54 50.5l-166 -133v109q0 50 36 91q26 29 80 61q-101 -19 -151 -66q-58 -54 -58 -152v-176q0 -74 -34 -123q-27 -40 -95 -87l-3 3q45 57 61 107q15 45 15 122v156q0 83 32 130q27 39 102 84l-42 -11q-15 -4 -26.5 -6.5
t-19.5 -3.5l-10 -1q-21 0 -54 10q-65 18 -96 18q-48 0 -80.5 -33.5t-42.5 -81.5l15.5 14t7.5 7q25 21 43 21l23 -3q2 -1 12 -4l29 -9q25 -9 40 -9q22 0 55 12q-58 -58 -72 -82q-25 -41 -25 -106q-44 0 -76 -22q-36 -23 -44 -64q31 15 64 15h10t10 -1q26 -3 41.5 -24.5
t13.5 -47.5l-1 -12q-83 -20 -83 -81l2 -18q25 28 57 28q27 0 27 -27l-2 -16q-11 -38 -59 -91q-27 -30 -39 -47q-24 -36 -24 -64q0 -32 25 -32h5q21 0 21 23q0 4 -2 11.5l-4 15.5t-4 15t-2 11q0 6 6 18q24 47 132 47q117 0 197 -48l91 138l-11 12q-31 -37 -93 -37
q-7 0 -33.5 2t-72.5 6l-23 2q116 107 213 107q41 0 87 -17q-10 -62 -38 -113q-4 -7 -20 -30.5l-45 -65.5q-30 -44 -30 -68q0 -16 12 -32q17 -20 39 -20q14 0 28 9.5t14 22.5q0 17 -28 17l-5 -2q-28 0 -28 19l1 3q3 25 51 62l36 26t28 20q56 41 78 107q18 52 18 130zM557 352
q-14 -5 -22.5 -7t-10.5 -3q-24 -6 -46 -6q-11 0 -34 4t-57 12v27l97 82q56 -29 73 -109zM556 219q-45 15 -87 15q-39 0 -82 -12v109q41 -10 86 -10q48 0 83 11v-113z" />
    <glyph glyph-name="I" unicode="I" horiz-adv-x="492" 
d="M468 649v7q-147 0 -147 -203q0 -33 7 -93.5t21 -148.5q0 -8 1 -20t3 -29t3 -29t1 -20q0 -36 -10.5 -58t-37.5 -27l-11 -2q-52 0 -115 73q106 0 106 112q0 16 -18 150q-4 26 -5.5 50t-1.5 47q0 128 83 196l-1 3q-58 -14 -80 -14q-8 0 -62 9q-12 2 -24 3t-25 1h-7
q-45 0 -75.5 -30t-40.5 -75l6 -1q22 46 56 46h6q15 0 44 -6l26 -3.5t18 -1.5q31 0 78 22q-48 -56 -64 -95q-17 -41 -24 -113q-45 0 -79.5 -21.5t-45.5 -63.5q49 18 77 18q32 0 48 -16q33 -30 33 -113q0 -33 -7 -60q-13 -30 -65 -29l-22 1l-22 -1q-45 -7 -70 -43t-25 -82
l2 -1q29 50 76 50q25 0 111 -31q53 -17 86 -17h11q84 0 129 88q28 55 28 138q0 23 -6 75.5t-19 137.5q-5 42 -7.5 71.5t-3.5 46.5l-1 17q-2 36 13 56q13 17 49 29z" />
    <glyph glyph-name="J" unicode="J" horiz-adv-x="516" 
d="M540 639l-2 13q-87 -32 -136 -32q-20 0 -63 8q-13 2 -23.5 5t-20.5 5q-34 8 -64.5 12t-56.5 4q-110 0 -147 -85q-11 -27 -11 -44q0 -25 17 -46t42 -21q39 0 39 42q-3 31 -29 31q-7 0 -20.5 -3t-20.5 -3q-10 0 -10 11q0 9 8 30q12 17 46 17q28 0 63 -11q26 -8 38.5 -12.5
l12.5 -4.5q39 -11 65 -11q38 0 121 33l2 -4q-69 -46 -86 -62q-69 -58 -79 -146q-33 13 -64 13q-45 0 -74 -32q58 0 93.5 -31.5t35.5 -88.5q-38 16 -74 16q-37 0 -64 -24q105 -19 152 -86q25 -35 25 -96q0 -44 -30 -56l-23 -3q-18 0 -61 8q-20 4 -35 6t-26 2q-94 0 -117 -122
l4 -1q27 50 58 50l17 -3q92 -31 125 -31q71 0 160 79q77 67 104 141q24 63 22 157l-3 167q0 34 4.5 62.5t15 53.5t28 47.5t42.5 45.5zM469 603q-59 -58 -84 -115q-23 -57 -23 -140v-184q0 -103 -28 -152q-37 -63 -128 -79l-1 4q65 28 88 83q15 37 15 116v239q0 144 161 228z
" />
    <glyph glyph-name="K" unicode="K" horiz-adv-x="699" 
d="M675 98l-14 13l-28 -26l-81 130q-43 70 -116 110l82 67t82 61l-103 115q-74 -74 -162 -135q0 119 58 226h-17q-60 -101 -60 -214v-181q0 -94 -58 -140q-2 -2 -35.5 -20l-97.5 -53l-11 8l69.5 60t33.5 31q50 56 50 120v200q0 83 53 181v7q-53 -19 -79 -19q-6 0 -18.5 2
t-32.5 6q-39 9 -63 9q-106 0 -125 -132l3 -1q34 54 92 54l73 -5q34 -2 112 47l2 -4q-62 -47 -87 -87q-31 -49 -31 -118q-27 13 -58 13q-52 0 -75 -59q34 10 51 10l18 -2q39 -4 58 -46q15 -33 15 -77q-29 16 -64 16q-46 0 -56 -52q24 11 39 11q31 0 41 -34l3 -27
q0 -46 -39 -89l-40.5 -42l-28.5 -29l12 -15q31 10 55 16.5l42 11.5q49 11 81 11q69 0 167 -39l106 121l22.5 -38.5t16.5 -25.5l21.5 -30t21.5 -26zM493 397q-41 -31 -74 -59l-71 -60l-13 1v130l90 66zM482 130l-44 -50q-69 31 -157 31l-13 2q57 52 67 136l3 1q49 0 87 -38
q11 -11 25.5 -32t31.5 -50z" />
    <glyph glyph-name="L" unicode="L" horiz-adv-x="612" 
d="M586 81l-15 14q-25 -22 -34 -22q-7 0 -20 9q-11 8 -20 13l-16 9q-40 22 -94 22q-56 0 -146 -28l-2 4q86 62 118 125q34 64 34 170v47q0 8 -1 20t-3 28q-2 17 -3 29t-1 20q0 91 93 105l-2 7q-89 0 -130 -37q-44 -41 -44 -127l1 -9q0 -28 3 -83q2 -28 3 -48.5t1 -34.5
q0 -83 -35 -145q-31 -52 -104 -110l-3 3q24 37 40 66t24 49q21 55 21 128q0 11 -1 32t-1 32q0 10 -1 23.5t-3 32.5t-3 32.5t-1 22.5q0 97 82 167l-3 5q-16 -7 -25.5 -10.5t-11.5 -4.5q-21 -6 -41 -6q-16 0 -58 12q-39 13 -67 13h-8q-94 0 -116 -105l7 -6q28 43 59 43
q7 0 17.5 -2t26.5 -6q34 -8 48 -8q45 0 89 27q-41 -47 -60 -88q-21 -46 -19 -94l2 -48q-11 4 -18 4h-17q-49 0 -67 -41l24 1q38 2 61.5 -19.5t23.5 -58.5l-1 -6q-22 5 -38 5q-24 0 -45 -18q84 -11 84 -83v-9q-11 -68 -108 -144l6 -10q120 56 213 56q110 0 195 -70z" />
    <glyph glyph-name="M" unicode="M" horiz-adv-x="866" 
d="M834 77l-13 13q-12 -14 -22 -14q-24 0 -24 54v389q0 23 12 46q4 7 10.5 16.5l16.5 23.5l-11 8l-39 -29l-104 71l-165 -106q-13 66 -79 109l-179 -97q-120 -65 -120 -226q-48 -6 -73.5 -25.5t-35.5 -64.5q36 12 53 12q19 0 34 -7q18 -6 32.5 -18t25 -28t16 -35.5
t5.5 -38.5q0 -23 -11 -48q-16 -28 -121 -51q-81 -17 -81 -114h6q24 44 72 44q5 0 10.5 -0.5t12.5 -1.5q38 -5 59 -8t23 -3q36 0 69 21q66 40 66 139v187h110l1 -164q0 -12 -8 -23q-2 -2 -6 -6.5t-11 -9.5v-8q22 -17 47 -40t54 -54l150 133l-14 16l-23 -17v173l52 73h-51v210
l20 10l72 -53l1 -422q0 -95 73 -123zM559 368h-64l-1 150l65 44v-194zM390 541l-1 -173h-71l-40 -59v171q0 59 49 105q63 0 63 -44zM559 105l-32 -29q-33 13 -33 51l1 168h64v-190zM277 554q-17 -36 -17 -68v-372q0 -78 -63 -78q-14 0 -41 9q61 34 61 121v268q0 44 12 70
t45 53z" />
    <glyph glyph-name="N" unicode="N" horiz-adv-x="727" 
d="M703 105l-17 11l-17 -23q-30 5 -51.5 7.5t-35.5 2.5q-41 0 -79 -13q157 194 157 332q0 165 -218 234l-244 -148v-82q-50 14 -70 14q-39 0 -67 -27q113 0 137 -111q-39 19 -75 19q-40 0 -62 -33l23 2q85 7 115 -92q-22 5 -46 5q-43 0 -70 -35h24q45 0 83 -21
q43 -25 43 -69q0 -27 -18.5 -42.5t-46.5 -15.5l-17 -2q-7 0 -15 0.5t-16 1.5q-21 2 -33.5 3.5t-16.5 1.5h-16q-31 0 -63 -26q-20 -16 -45 -50l1 -3q33 16 62 16q22 0 61 -11q69 -20 88 -20h12q79 0 132 63q50 59 50 140v109q55 34 94 34q44 0 84 -34l-33 -75l-33 -74
q-37 -90 -50 -154l6 -6q45 68 122 68q42 0 94 -13zM549 427q-44 -45 -93 -45t-104 42v132q68 -6 118 -37q58 -34 79 -92zM559 363q0 -35 -20 -98q-43 28 -90 28q-49 0 -96 -28v134q52 -34 103 -34t98 39q2 -16 3.5 -26t1.5 -15zM331 153l-1 -8q0 -138 -102 -138l-8 2l-1 4
q43 24 60 69q12 34 12 93v359l40 20v-401z" />
    <glyph glyph-name="O" unicode="O" horiz-adv-x="677" 
d="M653 378q0 33 -11 69q-29 93 -117 148q-77 50 -182 62l-83.5 -59.5l-72.5 -50.5l-80.5 -52.5t-79.5 -48.5q-30 -92 -30 -182q0 -66 21 -123q26 -68 84 -110q59 -41 131 -41q130 0 268 120q152 134 152 268zM518 445q-43 -49 -95 -49q-51 0 -106 47v114q147 -27 201 -112z
M557 333q0 -29 -16 -73q-55 49 -111 49q-53 0 -112 -38v143q50 -32 101 -32q58 0 111 45q27 -44 27 -94zM532 233q-83 -159 -215 -159v169q58 50 110 50q58 0 105 -60zM293 74q-69 0 -139 70q70 74 81 95q18 31 18 72v249h40v-486zM166 253q0 -51 -26 -92q-61 71 -61 156
q0 106 87 195v-259z" />
    <glyph glyph-name="P" unicode="P" horiz-adv-x="677" 
d="M637 109v279q0 98 -35 147q-41 55 -138 120l-107 -73v74h-23v-90l-49 -29q-5 54 -35.5 85.5t-82.5 31.5q-65 0 -127 -50v-13q36 11 65 11q20 0 41 -8q40 -19 39 -86l-1 -50l-163 -113q70 -40 108 -85q43 -52 53 -125q-119 -37 -179 -124l6 -8q99 39 175 39l1 -178l85 3
l86 -3l1 167q64 -12 135 -41zM528 406q-35 -35 -87 -35q-54 0 -85 37v149l16 12q65 0 110 -49q46 -47 46 -114zM527 252q-47 21 -91 21q-42 0 -79 -21v126q38 -23 82 -23t88 23v-126zM528 226l-1 -135q-22 10 -43.5 17.5t-42.5 13.5q-7 2 -28.5 7.5t-56.5 13.5v89
q38 25 82 25q49 0 90 -31zM183 321l-78 64l78 50v-114zM334 -109h-44v626l44 26v-652z" />
    <glyph glyph-name="Q" unicode="Q" horiz-adv-x="718" 
d="M692 45l-14 15q-15 -12 -22 -12q-5 0 -19 11l-94 79q52 53 84 110q41 75 37 130l-3 41q-21 103 -113 168q-81 57 -194 70l-83.5 -59.5l-72.5 -50.5l-80.5 -52.5t-79.5 -48.5q-8 -23 -14 -43.5t-11 -40.5q-7 -30 -9.5 -52.5t-1.5 -37.5l2 -24q7 -96 53 -158
q52 -73 137 -93q28 -4 41.5 -5.5t12.5 -1.5q97 0 215 79l133 -111zM529 445q-43 -49 -95 -49q-49 0 -108 47v114q151 -27 203 -112zM568 333q0 -29 -16 -73q-55 49 -113 49q-53 0 -112 -38v143q53 -32 103 -32q58 0 111 45q27 -44 27 -94zM543 233q-84 -159 -217 -159v169
q59 50 112 50q58 0 105 -60zM304 74q-68 0 -141 70l37.5 38.5t16.5 17.5q47 56 47 111v249h40v-486zM177 253q0 -52 -28 -92q-59 71 -59 156q0 108 87 195v-259z" />
    <glyph glyph-name="R" unicode="R" horiz-adv-x="718" 
d="M693 77l-12 12l-22 -17q-32 31 -52 89q-27 79 -42 105q-37 61 -113 107l140 100l-51 70l-48.5 66l-37.5 49l-178 -118q-5 51 -35 82.5t-81 31.5q-69 0 -128 -50v-13q42 11 64 11q83 0 82 -93l-1 -43l-162 -121q165 -81 165 -210q-111 -34 -181 -127l1 -5q114 43 194 43
q10 0 19.5 -0.5t17.5 -1.5q43 -5 85 -28q8 -5 22 -13l34 -20l102 103l-13 13l-21 -19q-43 25 -92 42v173q70 0 110 -61q14 -21 58 -129q34 -84 75 -116h10zM493 427l-144 -106v243l31 21zM328 129q-21 6 -45 6v383l45 30v-419zM177 329l-75 60l75 50v-110z" />
    <glyph glyph-name="S" unicode="S" horiz-adv-x="718" 
d="M695 264v5q0 91 -84 141q-56 32 -170 40l-33 2l95 170l-18 13l-22 -39q-96 27 -191 66l-93 -83q-30 -27 -51 -64t-21 -75q-80 -38 -80 -96q0 -14 7 -32q22 -57 89 -83q61 -22 116 -18l12 1l-23 -49q-19 2 -39 3.5t-42 1.5q-149 0 -149 -104q0 -17 7 -31.5t19 -25t28 -17
t34 -7.5l30 -2q41 -3 106 19q12 4 36.5 14l61.5 26l124 -51q71 36 112 64q139 94 139 211zM415 510l-34 -61l-54 -8q-14 -2 -28 -3.5t-27 -1.5q-101 0 -101 66l-1 3q0 31 27 49q25 17 56 17h16q71 -7 146 -61zM627 228q0 -79 -93 -160l-89 34l49.5 28t32.5 22q44 35 44 71
q0 19 -7 34q-23 54 -120 54q-18 0 -46 -2t-66 -6l28 58q25 4 46.5 5.5t41.5 1.5q159 0 177 -107q1 -6 1.5 -11t0.5 -10v-12zM328 356l-30 -55q-24 -4 -42.5 -6t-32.5 -2q-33 0 -60.5 8t-49.5 26q-26 23 -26 45q0 23 27 49q30 -69 142 -69q13 0 31 1t41 3zM485 192
q0 -18 -29 -45l-40 -33q-114 36 -164 45l27 54q124 12 135 12q39 0 56 -7q15 -9 15 -26zM287 49q-100 -52 -181 -52q-55 0 -72 35l-5 16q0 23 26 37q22 11 47 11q74 0 185 -47z" />
    <glyph glyph-name="T" unicode="T" horiz-adv-x="655" 
d="M623 658l-6 1q-32 -53 -97 -53q-33 0 -78 13l-75 21q-52 13 -122 13q-211 0 -241 -184h4q39 54 72 73q38 21 84 19l61 -3q-34 -26 -60 -49.5t-43 -45.5q-46 -55 -64 -124q-11 -42 -11 -76q0 -85 49 -153q85 -120 254 -120q43 0 82 10q138 35 187 210l-5 3
q-66 -100 -171 -133v440l12 -1q67 -6 117 30q51 37 51 109zM421 76l-13 -3q-94 0 -161 50q61 56 81 91q28 47 28 116v204l65 -13v-445zM258 220q0 -51 -33 -82q-82 79 -82 185q0 126 100 232l15 -4v-331z" />
    <glyph glyph-name="U" unicode="U" horiz-adv-x="740" 
d="M717 77l-10 14l-33 -28q-18 22 -18 68v399q0 50 41 100l-8 5l-48 -40l-91 60l-99 -116l13 -11l33 38l45 -31v-120q-37 -22 -73 -22t-77 22v241h-23q-31 -25 -77 -25q-27 0 -79 12q-51 13 -80 13q-70 0 -108 -56q-30 -48 -30 -123l8 3q37 89 116 97h23q6 0 14.5 -0.5
t18.5 -1t18.5 -1t14.5 -0.5q13 0 33.5 3.5t49.5 10.5l1 -4q-45 -23 -80 -46.5t-61 -48.5q-62 -59 -91 -142q-19 -53 -19 -100q0 -92 58 -168q69 -89 196 -89q16 0 32 1.5t32 5.5q88 18 182 115q15 -76 67 -123h20zM541 287q-39 17 -74 17q-37 0 -74 -17v106q40 -18 74 -18
q33 0 74 18v-106zM542 141q-73 -49 -149 -56l-1 182q43 21 77 21q31 0 73 -21v-126zM370 83q-94 0 -154 48q113 72 113 191v205q0 56 41 97v-541zM322 584q-82 -82 -82 -171l1 -165q0 -66 -39 -105q-57 72 -57 163q0 6 3 33q0 4 0.5 8.5t1.5 10.5q22 141 172 226z" />
    <glyph glyph-name="V" unicode="V" horiz-adv-x="590" 
d="M569 433q0 120 -68 230l-258 -134q-42 130 -141 130q-94 0 -109 -116q28 36 56 36q11 0 26 -5q51 -19 76 -110q18 -65 18 -143q-34 22 -67 22q-56 0 -62 -63h15q36 0 65 -18t37 -51l3 -33q0 -42 -47 -171l14 -9q51 23 87 23q41 0 107 -32l90 101t43 51q72 94 97 176
q18 58 18 116zM461 415q-69 -23 -108 -23q-28 0 -88 15q0 9 -15 99l156 84q22 -37 36 -80.5t19 -94.5zM461 393q0 -78 -23 -147q-48 22 -119 22q-37 0 -70 -6q16 63 16 127q56 -14 93 -14q47 0 103 18zM432 228l-39 -82.5t-30 -57.5q-35 12 -66 12q-51 0 -136 -57l-9 4
l32 61l17 32q26 54 39 98q48 14 87 14q51 0 105 -24z" />
    <glyph glyph-name="W" unicode="W" horiz-adv-x="1086" 
d="M1064 77l-12 17l-35 -28q-22 22 -22 64v390q0 48 47 101l-8 4l-62 -38l-74 69l-95 -100l16 -15l29 29l34 -35v-128q-41 -12 -63 -12q-21 0 -57 12v249h-21q-17 -36 -58 -36q-19 0 -55 12q-72 24 -83 24h-9q-53 0 -87 -46q-27 -38 -36 -95l11 -4q17 41 55 56q24 10 79 10
h42q14 0 28 1.5t28 3.5l1 -4q-95 -56 -155 -138q-67 -92 -67 -193q0 -50 21 -108q-32 -35 -66 -57v574h-24q-38 -41 -78 -41q-21 0 -50 10q-41 14 -62.5 20.5t-25.5 7.5l-28 1q-60 1 -94 -54q-28 -46 -28 -110l13 -4q19 43 36 61q25 25 65 25h25l55 -3q20 -1 69 16l2 -4
q-168 -92 -208 -243q-14 -53 -14 -100q0 -95 52 -165q27 -39 72.5 -61t93.5 -22q24 0 52 7q74 16 152 124q61 -132 187 -132q104 0 232 123q6 -46 24.5 -74t58.5 -49zM882 282q-26 8 -60 8q-33 0 -59 -8v103q26 -10 54 -10q24 0 65 10v-103zM741 76q-91 0 -153 52
q61 34 86.5 78t25.5 114v207q0 56 41 88v-539zM882 138q-57 -39 -119 -56l-1 180q33 10 60 10t60 -10v-124zM683 574q-72 -86 -72 -171v-156q0 -64 -37 -104q-51 73 -51 155q0 83 43 159t114 120zM367 76l-17 -3q-87 0 -148 55q63 37 87 78q25 41 25 114v199q0 35 11.5 55
t41.5 41v-539zM297 574q-76 -89 -76 -171v-156q0 -71 -33 -104q-62 68 -62 160q0 85 46 161q47 77 122 113z" />
    <glyph glyph-name="X" unicode="X" horiz-adv-x="580" 
d="M560 583l-44.5 22.5t-21.5 11.5q-30 16 -60 39l-111 -248l-83 161q-26 50 -40 62q-26 25 -67 25q-78 0 -129 -95l4 -4q37 26 70 26q47 0 74 -55l74 -150h-107l-33 -71h170l1 -19l-80 -176l-118 44l-40 -92q60 -23 130 -74l128 286l86 -184q19 -40 36 -62q24 -30 56 -41
l91 89l-14 19l-30 -29q-31 24 -41 44l-93 195h114l31 70h-175l-1 15l71 152l113 -46z" />
    <glyph glyph-name="Y" unicode="Y" horiz-adv-x="633" 
d="M614 388q0 17 -1.5 36.5t-5.5 42.5q-10 69 -56 116q-48 49 -117 49q-76 0 -180 -74q-13 43 -47.5 69t-79.5 26q-37 0 -80 -21v-5h5q55 0 77 -26.5t20 -83.5l-2 -70q-26 10 -66 10q-22 0 -37 -7q57 -26 78 -53q27 -33 27 -89l-2 -11q-36 18 -84 18h-22v-4q29 -13 52 -33
t40 -46q17 -30 16 -73l-1 -33q-60 0 -101 -32q-45 -35 -45 -94q0 -56 41 -97t98 -41q40 0 78 18l90.5 45t64.5 33q12 6 20 6q12 0 13 -7q3 -3 4 -9q0 -8 -11 -28l-4 -17q0 -29 24 -36l16 -3q35 0 35 45q0 26 -17 46q-32 35 -84 35q-37 0 -114 -28l-56 -21.5l-56 -21.5
l-28 -1q-42 -1 -68.5 22t-26.5 62q0 55 51 81q40 21 100 21h170q132 0 202 76t70 208zM492 447q-52 -38 -90 -38q-41 0 -85 34v125q37 14 60 14q92 0 115 -135zM500 358q0 -22 -6 -73q-50 30 -96 30q-43 0 -80 -24v126q39 -24 80 -24q47 0 97 35q0 -12 2.5 -35t2.5 -35z
M489 265q-20 -78 -65 -117q-31 -26 -93 -26h-14v148q41 29 83 29q45 0 89 -34zM295 122h-45v413l45 21v-434z" />
    <glyph glyph-name="Z" unicode="Z" horiz-adv-x="568" 
d="M538 108l-15 11l-32 -36q-73 35 -150 35q-60 0 -129 -22q-26 -8 -58 -20.5t-70 -29.5l-2 4q78 67 136.5 125.5t96.5 109.5h131l14 31h-123l29 47h116l15 32h-110q35 75 69.5 136.5t68.5 110.5l-4 5q-113 -36 -183 -36q-82 0 -190 44l-47 -58q-12 -15 -24 -28.5l-24 -26.5
l14 -13l31 32q65 -25 132 -25q109 0 239 73q-138 -123 -212 -215h-130l-13 -32h120l-30 -47h-114l-14 -31h111l-74.5 -127l-31.5 -54q-19 -29 -37.5 -54.5t-35.5 -46.5l6 -5q125 46 213 46h11q79 0 202 -53l43.5 54t19.5 23z" />
    <glyph glyph-name="bracketleft" unicode="[" horiz-adv-x="224" 
d="M198 -116v17l-97 1v857l97 1v19h-196v-895h196z" />
    <glyph glyph-name="backslash" unicode="\" horiz-adv-x="267" 
d="M255 606l-95 23q-57 -50 -111 -74v-102h-41l-8 -51h49v-257q0 -49 -26 -75q56 -16 133 -75l44 40l44 40l-12 13l-23 -18l-65 35v450l91 -18z" />
    <glyph glyph-name="bracketright" unicode="]" horiz-adv-x="224" 
d="M195 -116v894h-195v-17l96 -1v-857l-96 -1v-18h195z" />
    <glyph glyph-name="asciicircum" unicode="^" horiz-adv-x="633" 
d="M602 446l-249 277h-97l-249 -277h42l254 208l254 -208h45z" />
    <glyph glyph-name="underscore" unicode="_" horiz-adv-x="524" 
d="M501 -233v68h-501v-68h501z" />
    <glyph glyph-name="grave" unicode="`" horiz-adv-x="326" 
d="M244 540q-92 73 -150 147l-66 -22q63 -78 179 -140z" />
    <glyph glyph-name="a" unicode="a" 
d="M365 69l-11 9l-18 -9q-21 6 -28 31v262q10 40 34 77l-2 4l-28 -22l-142 47q-47 -44 -103 -39l-13 1l48 -125q-99 -89 -99 -181q0 -62 71 -128h5l136 109q0 -74 64 -108zM215 257l-103 50l-42 114l145 -54v-110zM216 131l-75 -64q-58 58 -58 126q0 46 29 98l104 -52v-108z
" />
    <glyph glyph-name="b" unicode="b" 
d="M361 69v279q0 73 -66 117l-142 -103v177q0 52 45 91q-52 0 -96 -50l-15 -1q-25 19 -62 33l-3 -3q41 -42 39 -92l-2 -64h-51v-51h51v-246q0 -45 -28 -74q84 -17 186 -84q79 55 144 71zM270 75l-117 52v207l79 59q34 -23 38 -47v-271z" />
    <glyph glyph-name="c" unicode="c" horiz-adv-x="303" 
d="M265 87l-10 11l-43 -32l-88 44v284l90 -51l43 61l-101 63q-28 -25 -58.5 -45t-64.5 -34v-255q0 -47 -27 -71q66 -14 138 -64l60 44z" />
    <glyph glyph-name="d" unicode="d" 
d="M348 400q0 21 8 43q-27 -11 -40 -33l-304 194v-95l127 -82q-28 -14 -50.5 -23.5t-40.5 -14.5v-239q0 -52 -28 -77q100 -21 180 -79q60 48 148 77v329zM253 73l-112 40v273l33 20l79 -53v-280z" />
    <glyph glyph-name="e" unicode="e" horiz-adv-x="326" 
d="M296 338l-129 129q-33 -23 -66.5 -43t-68.5 -36v-267q0 -44 -28 -73q71 -13 138 -50l87 61q15 11 28.5 20l26.5 17l-11 12l-66 -42l-84 37v104q63 54 173 131zM217 305l-95 -75v172z" />
    <glyph glyph-name="f" unicode="f" horiz-adv-x="303" 
d="M272 86l-11 12l-34 -28l-72 46v286h68l7 51h-75v102l86 -18l20 69l-96 23q-57 -51 -109 -74v-102h-44l-9 -51h51v-257q0 -47 -25 -72q90 -35 144 -76z" />
    <glyph glyph-name="g" unicode="g" horiz-adv-x="430" 
d="M401 349v95l-75 -47l-153 70l-50.5 -25t-23.5 -11q-22 -10 -41.5 -17t-37.5 -11v-328l93 -66l-108 -123l21 -18q63 21 118 21q50 0 127 -21l40.5 19.5l13.5 6.5q64 31 69 66v4q0 16 -36 69q-35 55 -35 88v240zM234 136l-62 -63l-64 43v284l126 -36v-228zM334 -60l-2 -12
q-86 27 -159 27q-55 0 -85 -6l143 158q6 -51 36 -95q19 -27 67 -72z" />
    <glyph glyph-name="h" unicode="h" horiz-adv-x="403" 
d="M361 104v244q0 73 -66 117l-140 -103v177q0 54 43 91q-52 0 -96 -50l-15 -1q-25 19 -62 33l-2 -2q36 -33 36 -100v-59h-51v-49h49v-313l-29 -34l75 -61l76 66l-26 29v247l79 59q32 -20 38 -47v-280q0 -72 -53 -111q-14 -10 -44.5 -24.5t-79.5 -33.5l3 -6q104 20 172 65
q93 58 93 146z" />
    <glyph glyph-name="i" unicode="i" horiz-adv-x="214" 
d="M156 614h-74l-24 -102h13zM182 69l-10 9l-18 -12q-23 12 -28 32v277l25 28l-77 64l-74 -61l29 -31v-261l-1 -18q-5 -65 63 -101z" />
    <glyph glyph-name="j" unicode="j" horiz-adv-x="214" 
d="M176 614h-74l-24 -102h13zM187 384q-24 20 -46.5 41l-44.5 41l-98 -75l7 -7l31 17l36 -34q-29 -67 -29 -142q0 -16 3 -43.5t10 -69.5q12 -75 12 -93q0 -72 -58 -124l7 -11q129 58 129 176v24q0 12 -1.5 33.5t-5.5 53.5q-3 27 -3 45q0 88 51 168z" />
    <glyph glyph-name="k" unicode="k" horiz-adv-x="443" 
d="M409 69l-12 13l-19 -10q-17 23 -26 68q-6 28 -10.5 46.5t-8.5 26.5q-16 43 -56 72q32 32 55 53t37 32l-91 96l-130 -114v187q0 61 47 90q-52 0 -97 -49l-14 -1q-27 22 -65 31q35 -35 35 -68v-89h-51v-50h51v-270q0 -47 -25 -72q59 -18 145 -66l96 101q11 -71 48 -98z
M288 326l-141 -121v115l79 72zM265 124l-58 -60l-60 31v83l59 47q52 -44 59 -101z" />
    <glyph glyph-name="l" unicode="l" horiz-adv-x="267" 
d="M238 75l-12 13l-24 -18l-73 46v421q0 55 49 91q-57 -8 -103 -51l-11 -1q-29 23 -66 32q33 -35 33 -64v-399q0 -43 -26 -72q95 -35 142 -76z" />
    <glyph glyph-name="m" unicode="m" horiz-adv-x="671" 
d="M632 68l-12 10l-19 -12q-22 14 -30 32v263q4 7 9.5 15l12.5 18l10.5 14.5l11.5 15.5l-11 11l-41 -34l-68 64q-84 -69 -130 -103q-15 61 -64 105l-145 -106q0 71 -65 106l-80 -75l9 -11l16 11q25 -19 25 -46v-257l-27 -31l74 -64l73 64l-27 34v244l79 59q40 -27 40 -49
v-257l-30 -31l77 -64l71 64l-26 34v248l71 52l43 -39v-239q0 -46 12 -71q13 -28 51 -49z" />
    <glyph glyph-name="n" unicode="n" horiz-adv-x="443" 
d="M410 68l-10 10l-21 -12q-21 14 -28 32v263l22 33t22 30l-10 11l-43 -34l-69 64q-22 -20 -54 -46t-74 -57q0 67 -63 105l-82 -75l10 -11l16 11q24 -20 24 -46v-257l-28 -31l76 -64l72 64l-27 34v248l71 52l45 -39v-239q0 -45 12.5 -71t48.5 -49z" />
    <glyph glyph-name="o" unicode="o" horiz-adv-x="387" 
d="M329 71v326q-65 9 -159 70q-62 -58 -142 -80v-237q0 -55 -27 -77q101 -21 180 -79q60 51 148 77zM235 73q-18 5 -44 15l-36.5 14l-34.5 14v276l115 -44v-275z" />
    <glyph glyph-name="p" unicode="p" 
d="M359 92v222q0 119 -100 153l-103 -97q-9 66 -69 98l-84 -75l11 -8l24 15q23 -14 23 -59v-228q-37 -11 -53 -18v-29h22q18 0 29 -4l2 -66q2 -59 -38 -107q19 3 39 15q5 4 14 10.5t20 16.5l22 -24t12 -11q25 -22 68 -28q-30 41 -38 67q-12 36 -9 68l3 36q55 -27 84 -39
l36.5 32.5t21.5 17.5q34 25 63 42zM270 75q-28 10 -56.5 19t-59.5 17v229l60 53q9 -3 19 -9t18 -14t13.5 -16.5t5.5 -16.5v-262z" />
    <glyph glyph-name="q" unicode="q" horiz-adv-x="373" 
d="M344 -111q-38 50 -38 90v369l25 32q-90 18 -186 87q-58 -51 -140 -72v-281q0 -74 63 -116l142 102l3 -119q1 -53 -43 -113q40 6 66 29l33 34q12 -10 21 -16.5t14 -10.5q20 -12 40 -15zM212 127l-80 -58q-36 19 -36 48v269l116 -50v-209z" />
    <glyph glyph-name="r" unicode="r" horiz-adv-x="329" 
d="M315 395l-65 71l-101 -77q-4 31 -20 48q-12 14 -43 30l-85 -75l11 -11l17 11q24 -20 24 -46v-201q0 -50 -27 -72q72 -28 128 -76l91 78l-12 12l-29 -21l-54 42v259l39 30l60 -59z" />
    <glyph glyph-name="s" unicode="s" horiz-adv-x="403" 
d="M367 493q0 37 -30 37q-24 0 -24 -16l5 -9q22 -28 22 -38q0 -14 -12 -24.5t-26 -10.5l-26 -3q-44 0 -128 41q-56 -53 -123 -83v-154l96 -53l-119 -170l13 -9q54 23 101 23q49 0 101 -26l36 23.5l23 14.5q31 19 65 30v184l-94 58l91 123q29 40 29 62zM270 374l-97 -128
l-60 31l1 115q54 -22 100 -22q16 0 30 1t26 3zM258 207l-1 -133q-56 27 -108 27q-38 0 -65 -6l111 144z" />
    <glyph glyph-name="t" unicode="t" horiz-adv-x="261" 
d="M229 402v51h-102l-1 127l-130 -163l-1 -14h35v-258q0 -44 -27 -72q55 -19 126 -76l90 78l-11 14l-28 -22l-53 44v291h102z" />
    <glyph glyph-name="u" unicode="u" horiz-adv-x="443" 
d="M411 68l-10 10l-18 -12q-30 16 -30 32v285l29 25l-74 59l-71 -59l24 -30v-251l-81 -58q-36 19 -36 48v266l30 24l-76 59l-96 -74l10 -11l23 14l18 -17v-264q0 -76 63 -116l143 102q0 -63 63 -106z" />
    <glyph glyph-name="v" unicode="v" horiz-adv-x="383" 
d="M336 71v296q0 39 -64 100l-142 -102q0 43 -37 92q-36 51 -36 62q0 30 40 66l-5 8q-97 -52 -97 -117q0 -41 41 -93v-233q0 -52 -28 -77q100 -21 180 -79q55 48 148 77zM242 73l-43 15q-44 15 -71 28v220l80 59q34 -37 34 -57v-265z" />
    <glyph glyph-name="w" unicode="w" horiz-adv-x="586" 
d="M544 71v288q0 49 -68 108l-136 -105q-4 57 -65 104l-135 -101q0 43 -37 92q-36 51 -36 62q0 30 40 66l-5 8q-99 -53 -99 -117q0 -40 44 -93v-233q0 -52 -28 -77q107 -29 175 -79q47 38 92 38q39 0 117 -38q65 56 141 77zM459 68q-32 9 -45 12q-20 5 -38 11l-35 12v233
l80 59l11.5 -11.5t7.5 -8.5q19 -19 19 -37v-270zM248 68q-69 23 -110 42v226l74 59q28 -31 29 -34q7 -10 7 -23v-270z" />
    <glyph glyph-name="x" unicode="x" horiz-adv-x="443" 
d="M410 69l-9 10l-27 -16q-37 28 -64 78l-77 139l47 99l77 -35l31 72l-92 50l-71 -161l-30.5 51t-24.5 40q-14 23 -33.5 40t-42.5 30l-92 -71l8 -9l33 20q41 -23 60 -59l71 -128l-58 -125l-79 28l-31 -74l93 -53l86 201l56 -97.5t24 -40.5q30 -42 63 -64z" />
    <glyph glyph-name="y" unicode="y" horiz-adv-x="382" 
d="M356 308q0 94 -61 158l-135 -106q0 73 -64 107l-96 -84l11 -13l32 23q24 -23 24 -47v-265q0 -13 -40 -65q-39 -53 -39 -83v-8q6 -57 102 -57h14q22 0 57 11q43 13 43 35q-2 7 -2 8q-4 7 -12 7q-13 0 -42 -26q-23 -17 -62 -17q-29 0 -51 11q-27 13 -27 41l-1 5q0 34 68 78
l52 28.5l40 21.5q81 41 130 95q59 65 59 142zM272 280q0 -53 -36 -108q-33 -48 -79 -83v245l68 53q47 -41 47 -107z" />
    <glyph glyph-name="z" unicode="z" horiz-adv-x="281" 
d="M250 156q0 53 -42 83q-38 26 -92 26l122 122q-28 4 -64 34l-30 26.5t-21 19.5l-123 -83l9 -14l55 36l85 -80l-140 -137q37 8 65 8q39 0 60.5 -17.5t21.5 -54.5q0 -29 -15 -51q-10 -16 -43 -44l-48 -39q-21 -23 -21 -55q0 -29 19.5 -48.5t48.5 -19.5q26 8 26 19t-15 11
q-6 0 -19 -3t-19 -3q-32 9 -32 38q0 34 33 54l82.5 45.5l33.5 19.5q63 40 63 107z" />
    <glyph glyph-name="braceleft" unicode="{" horiz-adv-x="352" 
d="M323 -114v22q-76 0 -100 36q-19 27 -17 100l1 29v47q0 88 -20 123q-28 48 -115 71v4q90 23 116 71q19 34 19 127v43l-1 29q-2 70 18 102q24 37 99 37v21q-103 0 -143 -30q-48 -36 -48 -135l1 -105q0 -80 -28 -109q-30 -30 -107 -40v-27q78 -9 107 -39q28 -29 28 -110
v-100q0 -101 45 -137q39 -30 145 -30z" />
    <glyph glyph-name="bar" unicode="|" horiz-adv-x="93" 
d="M70 -233v1004h-68v-1004h68z" />
    <glyph glyph-name="braceright" unicode="}" horiz-adv-x="352" 
d="M323 302v27q-77 10 -105 36q-32 30 -32 105l1 108q0 103 -46 139q-38 31 -144 31v-21q74 0 98 -38q16 -25 16 -101v-29l-1 -43q-1 -88 21 -128q28 -49 116 -70v-4q-88 -22 -116 -71q-23 -41 -21 -123l1 -47v-29q0 -75 -17 -101q-23 -35 -97 -35v-22q105 0 144 30
q46 34 46 137v100l-1 6q0 77 31 107q29 27 106 36z" />
    <glyph glyph-name="asciitilde" unicode="~" horiz-adv-x="335" 
d="M253 419l-12 -4l-2 -35l-197 -64l-3 -114l13 5l4 28l196 64zM296 286l-12 -4l-2 -35l-197 -64l-3 -114l14 4l3 29l196 63z" />
    <glyph glyph-name="quotesinglbase" unicode="&#x201a;" horiz-adv-x="180" 
d="M156 77l-27.5 26l-18.5 18q-9 10 -15.5 16.5l-11.5 11.5l-76 -72q45 -47 45 -71q0 -25 -45 -64l18 -20q93 60 131 155z" />
    <glyph glyph-name="florin" unicode="&#x192;" horiz-adv-x="456" 
d="M431 559l88 62l-23.5 31t-14.5 17q-35 45 -61 45h-8q-20 -3 -58 -28q-23 -14 -40.5 -29.5t-30.5 -32.5q-19 -25 -34.5 -63t-26.5 -92l-30 -134h-66l-64 -63l35 -18l18 16h64l-64 -299q-15 -70 -33 -97q-6 4 -13.5 13.5t-17.5 23.5q-7 10 -13 20t-13 20l-87 -67
l18.5 -23.5t12.5 -14.5q22 -30 24 -32q15 -18 33 -18q10 0 25 7l50 26t26 15q75 54 104 188l51 238h76l54 59l-30 20l-14 -14h-72l39 181q20 91 37 119l35 -41.5t24 -34.5z" />
    <glyph glyph-name="quotedblbase" unicode="&#x201e;" horiz-adv-x="351" 
d="M336 77l-27.5 26l-18.5 18q-9 10 -15.5 16.5l-11.5 11.5l-76 -72q45 -47 45 -71q0 -25 -45 -64l18 -20q93 60 131 155zM156 77l-27.5 26l-18.5 18q-9 10 -15.5 16.5l-11.5 11.5l-76 -72q45 -47 45 -71q0 -25 -45 -64l18 -20q93 60 131 155z" />
    <glyph glyph-name="ellipsis" unicode="&#x2026;" horiz-adv-x="631" 
d="M583 69q-14 13 -33 32.5t-43 47.5l-80 -76q16 -22 34 -41.5t40 -36.5zM363 69q-14 13 -33 32.5t-43 47.5l-80 -76q16 -22 34 -41.5t40 -36.5zM153 69q-14 13 -33 32.5t-43 47.5l-79 -76q31 -44 73 -78z" />
    <glyph glyph-name="dagger" unicode="&#x2020;" horiz-adv-x="351" 
d="M335 385v91l-142 -29l27 224h-85l27 -224l-144 29v-91l143 29l-34 -583h98l-32 583z" />
    <glyph glyph-name="daggerdbl" unicode="&#x2021;" horiz-adv-x="351" 
d="M335 24v91l-142 -29l19 164l-19 164l142 -29v91l-142 -29l27 224h-85l27 -224l-144 29v-91l143 29l-19 -164l19 -164l-143 29v-91l144 29l-27 -222h85l-27 222z" />
    <glyph glyph-name="circumflex" unicode="&#x2c6;" horiz-adv-x="326" 
d="M286 536q-58 66 -112 150h-50q-34 -52 -52 -76l-28 -35.5l-32 -38.5l12 -10q80 43 125 100q51 -59 124 -99z" />
    <glyph glyph-name="perthousand" unicode="&#x2030;" horiz-adv-x="1008" 
d="M976 188l-3 37q-11 53 -51 89q-28 25 -89 52q-63 -40 -97 -83q-44 -56 -44 -117l2 -7q0 -114 151 -162q78 58 108 106q26 44 23 85zM656 188l-3 37q-11 53 -51 89q-28 25 -89 52q-63 -40 -97 -83q-44 -56 -44 -117l2 -7q0 -114 151 -162q78 58 108 106q26 44 23 85z
M530 618h-51l-358 -621h51zM279 441l-1 34q-11 54 -51 90q-32 27 -89 52q-138 -78 -138 -197v-9q0 -112 147 -167q63 48 92 86q42 55 40 111zM925 153q0 -57 -41 -98q-58 10 -99 53q-40 41 -40 100q0 60 43 103q90 -17 126 -101q11 -39 11 -57zM605 153q0 -57 -41 -98
q-58 10 -99 53q-40 41 -40 100q0 60 43 103q90 -17 126 -101q11 -39 11 -57zM230 403q0 -54 -44 -96q-58 10 -97 52t-39 99q0 56 44 105q93 -21 125 -104q11 -30 11 -56z" />
    <glyph glyph-name="Scaron" unicode="&#x160;" horiz-adv-x="718" 
d="M422 857l-15 11q-62 -34 -117 -101q-45 58 -119 102l-13 -12q65 -77 108 -154h50q44 75 106 154zM695 264v5q0 91 -84 141q-56 32 -170 40l-33 2l95 170l-18 13l-22 -39q-96 27 -191 66l-93 -83q-30 -27 -51 -64t-21 -75q-80 -38 -80 -96q0 -14 7 -32q22 -57 89 -83
q61 -22 116 -18l12 1l-23 -49q-19 2 -39 3.5t-42 1.5q-149 0 -149 -104q0 -17 7 -31.5t19 -25t28 -17t34 -7.5l30 -2q41 -3 106 19q12 4 36.5 14l61.5 26l124 -51q71 36 112 64q139 94 139 211zM415 510l-34 -61l-54 -8q-14 -2 -28 -3.5t-27 -1.5q-101 0 -101 66l-1 3
q0 31 27 49q25 17 56 17h16q71 -7 146 -61zM627 228q0 -79 -93 -160l-89 34l49.5 28t32.5 22q44 35 44 71q0 19 -7 34q-23 54 -120 54q-18 0 -46 -2t-66 -6l28 58q25 4 46.5 5.5t41.5 1.5q159 0 177 -107q1 -6 1.5 -11t0.5 -10v-12zM328 356l-30 -55q-24 -4 -42.5 -6
t-32.5 -2q-33 0 -60.5 8t-49.5 26q-26 23 -26 45q0 23 27 49q30 -69 142 -69q13 0 31 1t41 3zM485 192q0 -18 -29 -45l-40 -33q-114 36 -164 45l27 54q124 12 135 12q39 0 56 -7q15 -9 15 -26zM287 49q-100 -52 -181 -52q-55 0 -72 35l-5 16q0 23 26 37q22 11 47 11
q74 0 185 -47z" />
    <glyph glyph-name="guilsinglleft" unicode="&#x2039;" horiz-adv-x="222" 
d="M188 103l-106 131l106 134l-57 34q-22 -32 -54.5 -74t-76.5 -94l66 -81l27 -36.5l36 -49.5z" />
    <glyph glyph-name="OE" unicode="&#x152;" horiz-adv-x="999" 
d="M978 159l-5 5q-57 -48 -89 -65q-47 -25 -108 -25v279l128 1l48 100l-89 2l113 148l-9 -1q-113 0 -175 53l-170 -168v-252q0 -41 -23 -62q-46 79 -46 196q0 77 28 129q24 46 86 99l-2 5q-94 -47 -137 -112q-87 145 -238 166q-51 -45 -116.5 -97l-148.5 -113
q-21 -75 -27 -121q-8 -54 -6 -81l3 -54q13 -86 63 -141q55 -61 139 -61q158 0 288 205q70 -204 254 -204q160 0 239 169zM873 504l-98 -135l1 179zM751 76q-99 17 -140 83q96 76 96 180v193l43 39zM441 445q-38 -47 -86 -47q-46 0 -80 40l1 118q118 -26 165 -111zM469 334
q0 -6 -3 -24l-8 -49q-45 48 -97 48q-44 0 -85 -32v132q33 -27 76 -27q52 0 96 44q21 -56 21 -92zM450 233q-13 -31 -30 -56.5t-37 -46.5q-50 -50 -107 -56l-1 175q37 42 83 42q55 0 92 -58zM254 74q-75 0 -131 65q84 90 84 172l1 246h46v-483zM135 253q0 -57 -23 -98
q-44 76 -44 153q0 101 67 201v-256z" />
    <glyph glyph-name="quoteleft" unicode="&#x2018;" horiz-adv-x="180" 
d="M163 519q-45 46 -45 71q0 26 45 65l-18 20q-93 -61 -131 -156l46 -44l15 -15t12 -13z" />
    <glyph glyph-name="quoteright" unicode="&#x2019;" horiz-adv-x="180" 
d="M156 587l-27.5 26l-18.5 18q-9 10 -15.5 16.5l-11.5 11.5l-76 -72q45 -47 45 -71q0 -26 -45 -65l18 -20q93 61 131 156z" />
    <glyph glyph-name="quotedblleft" unicode="&#x201c;" horiz-adv-x="351" 
d="M343 519q-45 46 -45 71q0 26 45 65l-18 20q-93 -61 -131 -156l46 -44l15 -15t12 -13zM163 519q-45 46 -45 71q0 26 45 65l-18 20q-93 -61 -131 -156l46 -44l15 -15t12 -13z" />
    <glyph glyph-name="quotedblright" unicode="&#x201d;" horiz-adv-x="351" 
d="M336 587l-27.5 26l-18.5 18q-9 10 -15.5 16.5l-11.5 11.5l-76 -72q45 -47 45 -71q0 -26 -45 -65l18 -20q93 61 131 156zM156 587l-27.5 26l-18.5 18q-9 10 -15.5 16.5l-11.5 11.5l-76 -72q45 -47 45 -71q0 -26 -45 -65l18 -20q93 61 131 156z" />
    <glyph glyph-name="bullet" unicode="&#x2022;" horiz-adv-x="532" 
d="M439 321q-37 32 -78 76l-89 100l-176 -167q35 -51 76 -94t87 -80z" />
    <glyph glyph-name="endash" unicode="&#x2013;" horiz-adv-x="547" 
d="M509 270v67h-480v-67h480z" />
    <glyph glyph-name="emdash" unicode="&#x2014;" horiz-adv-x="650" 
d="M609 270v67h-580v-67h580z" />
    <glyph glyph-name="tilde" unicode="&#x2dc;" horiz-adv-x="443" 
d="M357 643l-18 6l-15 -24q-27 -7 -30 -7q-25 0 -74 15q-50 15 -74 15q-40 0 -62 -40l-12 -23.5t-8 -16.5l17 -5l14 28h19q9 0 33.5 -5t66.5 -15q35 -8 59 -8q33 0 54 28z" />
    <glyph glyph-name="trademark" unicode="&#x2122;" horiz-adv-x="718" 
d="M314 686h-3q-17 -26 -48 -26q-8 0 -18.5 1.5t-21 4t-20.5 5.5t-17 6q-27 6 -61 6q-105 0 -120 -92h2q33 48 78 46l30 -1l-30.5 -26t-21.5 -23q-37 -44 -37 -99q0 -42 25 -76q42 -61 127 -61q18 0 40 5q69 18 94 106l-2 1q-33 -49 -86 -66v220l6 -1q34 -3 59 15.5t25 54.5
zM213 395l-6 -2q-49 0 -81 25l24.5 25t15.5 20q15 25 15 59v102l32 -7v-222zM132 467q0 -26 -17 -41q-41 39 -41 92q0 63 50 116l8 -2v-165zM707 396l-6 6q-6 -7 -11 -7q-12 0 -12 27v195q0 17 19 43l-5 4l-20 -15l-52 36l-82 -53q-8 33 -40 54l-89 -48q-60 -33 -60 -113
q-46 -6 -55 -45q18 6 27 6t17 -4q39 -14 39 -60q0 -11 -5 -24q-9 -15 -61 -25q-41 -9 -41 -58h3q12 22 37 22q8 0 25.5 -3t26.5 -3q19 0 35 10q33 21 33 70v94h55v-82q0 -10 -12 -20v-4q11 -8 23.5 -19.5t26.5 -27.5l75 67l-7 8l-11 -9v87l26 36h-26v105l10 5l36 -26l1 -211
q0 -49 36 -62zM570 541h-32l-1 75l33 22v-97zM485 628v-87h-36l-20 -29v85q0 29 25 53q31 0 31 -22zM570 410l-16 -15q-17 6 -17 26l1 84h32v-95zM429 634q-9 -17 -9 -34v-186q0 -39 -31 -39q-6 0 -21 5q31 16 31 60v134q0 40 28 62z" />
    <glyph glyph-name="scaron" unicode="&#x161;" horiz-adv-x="420" 
d="M334 684l-15 11q-62 -34 -117 -101q-45 58 -119 102l-13 -12q65 -77 108 -154h50q44 75 106 154zM377 493q0 37 -30 37q-24 0 -24 -16l5 -9q22 -28 22 -38q0 -14 -12 -24.5t-26 -10.5l-26 -3q-44 0 -128 41q-56 -53 -123 -83v-154l96 -53l-119 -170l13 -9q54 23 101 23
q49 0 101 -26l36 23.5l23 14.5q31 19 65 30v184l-94 58l91 123q29 40 29 62zM280 374l-97 -128l-60 31l1 115q54 -22 100 -22q16 0 30 1t26 3zM268 207l-1 -133q-56 27 -108 27q-38 0 -65 -6l111 144z" />
    <glyph glyph-name="guilsinglright" unicode="&#x203a;" horiz-adv-x="222" 
d="M218 234l-46.5 55.5t-22.5 27.5l-32.5 42t-29.5 43l-57 -34l106 -134l-106 -131l59 -36l69 92z" />
    <glyph glyph-name="oe" unicode="&#x153;" horiz-adv-x="532" 
d="M493 339l-125 128l-41 -26q-13 -8 -24 -14l-20 -11h-17q-63 33 -93 51q-64 -57 -143 -80v-237q0 -52 -28 -77q102 -23 178 -78l34.5 24t25.5 16h20l81 -38l80 56.5l60 41.5l-9 12l-66 -41l-85 37v104zM413 302l-90 -67v157zM236 348l-1 -275l-43 15q-44 15 -71 28l1 276z
" />
    <glyph glyph-name="Ydieresis" unicode="&#x178;" horiz-adv-x="633" 
d="M476 811q-20 20 -34.5 36l-24.5 27l-62 -60l57 -62zM305 811q-7 6 -14.5 13.5t-15.5 17.5q-5 5 -12 13l-16 19l-61 -60q5 -7 12 -14.5l16 -17.5l28 -30zM614 388q0 17 -1.5 36.5t-5.5 42.5q-10 69 -56 116q-48 49 -117 49q-76 0 -180 -74q-13 43 -47.5 69t-79.5 26
q-37 0 -80 -21v-5h5q55 0 77 -26.5t20 -83.5l-2 -70q-26 10 -66 10q-22 0 -37 -7q57 -26 78 -53q27 -33 27 -89l-2 -11q-36 18 -84 18h-22v-4q29 -13 52 -33t40 -46q17 -30 16 -73l-1 -33q-60 0 -101 -32q-45 -35 -45 -94q0 -56 41 -97t98 -41q40 0 78 18l90.5 45t64.5 33
q12 6 20 6q12 0 13 -7q3 -3 4 -9q0 -8 -11 -28l-4 -17q0 -29 24 -36l16 -3q35 0 35 45q0 26 -17 46q-32 35 -84 35q-37 0 -114 -28l-56 -21.5l-56 -21.5l-28 -1q-42 -1 -68.5 22t-26.5 62q0 55 51 81q40 21 100 21h170q132 0 202 76t70 208zM492 447q-52 -38 -90 -38
q-41 0 -85 34v125q37 14 60 14q92 0 115 -135zM500 358q0 -22 -6 -73q-50 30 -96 30q-43 0 -80 -24v126q39 -24 80 -24q47 0 97 35q0 -12 2.5 -35t2.5 -35zM489 265q-20 -78 -65 -117q-31 -26 -92 -26h-14l-1 148q41 29 83 29q45 0 89 -34zM296 122h-45l-1 413l45 21z" />
    <glyph glyph-name="exclamdown" unicode="&#xa1;" horiz-adv-x="180" 
d="M0 80l75 -85l74 85q-13 45 -24 91.5t-19 97.5q-12 70 -24 189h-16q-12 -114 -24 -190q-17 -107 -42 -188zM0 580q54 -55 74 -80l82 76q-17 23 -36 43t-39 36z" />
    <glyph glyph-name="cent" unicode="&#xa2;" horiz-adv-x="426" 
d="M299 67l49.5 55.5l36.5 40.5l-19 17l-35 -38q-11 5 -19 8l-13 5v298q80 3 109 77l-2 5q-17 -12 -35 -12q-41 0 -72 33v94h-28v-83q-63 -57 -147 -57q-9 0 -36 3q21 -35 21 -91v-266q-33 -22 -46 -52l3 -5q16 10 37 10q70 0 168 -59v-89h28v106zM271 167q-17 5 -30.5 8.5
t-21.5 4.5v322q29 -33 52 -43v-292z" />
    <glyph glyph-name="sterling" unicode="&#xa3;" horiz-adv-x="556" 
d="M553 79l-21 17l-21 -25q-81 37 -182 37q-61 0 -130 -22q41 50 41 123v64h87q35 0 52 -5q-5 10 -5 20q0 14 8 44q7 20 10 32t4 14q-29 -15 -74 -15h-82v165q0 67 60 67q52 0 111 -56l-26 -31l17 -14l106 119q-58 47 -135 47q-54 0 -124 -51q-32 -23 -54.5 -42t-34.5 -34
q-38 -47 -38 -106v-64h-29q-35 0 -52 5q5 -10 5 -20q0 -14 -8 -44l-10.5 -34.5l-3.5 -11.5q28 15 74 15h24v-131q0 -48 -19 -73q-8 -10 -27 -24.5t-49 -33.5l12 -25q84 32 162 32q149 0 250 -67z" />
    <glyph glyph-name="currency" unicode="&#xa4;" horiz-adv-x="600" 
d="M573 115l-94 95q39 58 39 124q0 65 -39 124l94 93l-54 56l-95 -96q-56 39 -124 39q-67 0 -124 -39l-93 96l-56 -56l96 -94q-39 -56 -39 -123t39 -124l-96 -95l56 -54l93 94q58 -39 124 -39q65 0 124 39l95 -94zM449 334q0 -60 -44 -106q-44 -45 -105 -45t-104 45
q-43 44 -43 106q0 60 43 104q43 45 104 45t105 -45q44 -46 44 -104z" />
    <glyph glyph-name="yen" unicode="&#xa5;" horiz-adv-x="648" 
d="M494 68l-17 17l-26 -22q-32 24 -64 32v200h122v36h-122v42h122v36h-116l27 60.5t24 58.5q21 -10 51 -10q51 0 88 37q31 33 45 86l-8 5q-25 -28 -69 -28q-48 0 -90 42q-25 -70 -51 -135t-55 -127q-62 157 -108 213q-40 46 -104 49q-27 -55 -77 -123l8 -8q19 16 42 16
q42 0 77 -50q7 -10 17.5 -31.5l26.5 -54.5h-102v-36h118l19 -42h-137v-36h142v-205q-71 -23 -122 -92l8 -10q32 17 72 17q75 0 138 -54l70 67.5z" />
    <glyph glyph-name="brokenbar" unicode="&#xa6;" horiz-adv-x="93" 
d="M70 335v372h-68v-372h68zM70 -167v368h-68v-368h68z" />
    <glyph glyph-name="section" unicode="&#xa7;" horiz-adv-x="418" 
d="M378 302q0 39 -11 69q-75 19 -121.5 32t-66.5 21q-62 25 -81 58q-12 22 -12 41q0 32 26 73l228 -59l32 82l-174 37q-66 -10 -116 -59q-52 -52 -52 -117q0 -52 39 -97q-53 -89 -53 -145q0 -17 11 -63l99 -30q115 -35 158 -66q27 -20 27 -66t-24 -86l-253 61l-29 -80
l193 -41q67 7 120 65q53 56 53 123q0 58 -45 103q52 82 52 144zM322 258q0 -18 -10 -47q-2 -6 -5.5 -15.5l-8.5 -23.5l-100 30q-58 18 -97 35q-33 15 -33 49q0 23 25 85q14 -6 26.5 -10.5l23.5 -8.5q5 -2 17 -5.5t32 -8.5l57 -15q39 -11 51 -18q22 -15 22 -47z" />
    <glyph glyph-name="dieresis" unicode="&#xa8;" horiz-adv-x="330" 
d="M296 617l-34 36.5l-24 26.5l-63 -60l58 -62zM126 617l-17.5 17.5t-12.5 13.5q-8 10 -15.5 17.5t-12.5 14.5l-61 -60l56 -62z" />
    <glyph glyph-name="copyright" unicode="&#xa9;" horiz-adv-x="718" 
d="M692 338q0 144 -103 246q-102 103 -245 103q-145 0 -247 -104t-102 -249q0 -143 101 -244q103 -101 246 -101q145 0 248 101q102 102 102 248zM652 336q0 -125 -91 -217q-92 -93 -214 -93l-5 2q-108 0 -194 70q-87 72 -106 175q-6 31 -6 60q0 130 89 222q90 92 219 92
q125 0 217 -92q91 -91 91 -219zM531 234l-4 1q-43 -33 -49 -37q-41 -27 -85 -27q-6 0 -17 2t-17 2v331q26 -8 49.5 -16.5t46.5 -18.5l60 66q-70 0 -137 40l-136 -115v-166q0 -35 -9 -53q-43 55 -43 119q0 102 85 172q-66 -23 -105 -85q-36 -59 -36 -132q0 -62 29 -112
q55 -94 178 -94q27 0 46 4q91 15 144 119zM342 177q-63 17 -100 59q36 31 51 54q19 31 19 72v131l30 25v-341z" />
    <glyph glyph-name="ordfeminine" unicode="&#xaa;" horiz-adv-x="286" 
d="M260 384l-8 9l-14 -11q-17 12 -21 24v187q8 28 25 54l-2 2l-21 -13l-100 34q-29 -30 -71 -30l-11 2l33 -89q-70 -67 -70 -131q0 -42 50 -92h7l93 77q0 -49 45 -76zM151 595l-1 -79l-69 36l-31 82zM151 428l-49 -46q-43 37 -43 90q0 30 21 71l71 -37v-78z" />
    <glyph glyph-name="guillemotleft" unicode="&#xab;" 
d="M364 103l-108 131l105 134l-57 34l-25 -36t-21 -29l-82 -103q32 -37 64 -78t64 -89zM188 103l-106 131l106 134l-57 34q-22 -32 -54.5 -74t-76.5 -94l66 -81l27 -36.5l36 -49.5z" />
    <glyph glyph-name="logicalnot" unicode="&#xac;" horiz-adv-x="330" 
d="M300 -88l-255 744h-49l256 -744h48z" />
    <glyph glyph-name="registered" unicode="&#xae;" horiz-adv-x="718" 
d="M692 336q0 144 -102 248q-102 103 -246 103q-142 0 -246 -107q-103 -106 -103 -249v-28q12 -131 113 -223q100 -91 234 -91q142 0 246 102t104 245zM590 168l-8 9l-16 -12q-23 23 -36 62q-20 57 -30 74q-26 44 -79 75l98 70l-35 49l-34.5 46l-26.5 34l-124 -82
q-9 79 -81 79q-49 0 -90 -35v-9q30 8 45 8q59 0 57 -65v-30l-114 -85q116 -57 116 -147q-72 -23 -118 -78q-56 62 -72 142q-6 31 -6 60q0 130 89 222q90 92 219 92q126 0 216 -92t90 -219q0 -124 -90 -217t-213 -93l-5 2q-125 0 -220 95q70 24 119 24h13q7 0 13 -1
q28 -3 52 -16q6 -3 18 -10t29 -18l71 73l-9 9l-14 -13l-32 15.5t-33 13.5v121q49 0 77 -43q5 -8 15.5 -30.5t25.5 -59.5q24 -60 52 -82h7zM450 413l-101 -74v170l22 15zM335 205q-13 4 -32 4v268l32 21v-293zM229 345l-53 42l53 35v-77z" />
    <glyph glyph-name="macron" unicode="&#xaf;" horiz-adv-x="524" 
d="M501 705v66h-501v-66h501z" />
    <glyph glyph-name="degree" unicode="&#xb0;" horiz-adv-x="308" 
d="M282 578q0 58 -41 99t-98 41l-4 -1q-57 0 -97 -42q-40 -40 -40 -97q0 1 1.5 -6t3.5 -22q4 -24 16 -44.5t30 -35.5t41 -23.5t48 -8.5q57 0 98 41q42 42 42 99zM238 577q0 -42 -27 -70t-69 -28q-45 0 -69.5 26.5t-24.5 71.5q0 42 26 70t68 28t69 -28t27 -70z" />
    <glyph glyph-name="plusminus" unicode="&#xb1;" horiz-adv-x="611" 
d="M589 355v65l-260 1l-1 168h-67l-1 -168l-260 -1v-65l260 -1l1 -166h67l1 166zM589 18v64h-589v-64h589z" />
    <glyph glyph-name="twosuperior" unicode="&#xb2;" horiz-adv-x="286" 
d="M263 291q-44 21 -97 21q-55 0 -134 -25q25 30 146 103q81 49 81 132v11l-139 78l-113 -81l40 -35l111 77q36 -32 36 -69q0 -51 -57 -99q-82 -70 -83 -70q-46 -46 -55 -90q54 19 109 19q53 0 111 -20z" />
    <glyph glyph-name="threesuperior" unicode="&#xb3;" horiz-adv-x="286" 
d="M99 243q59 0 105 23q57 28 57 82q0 65 -97 90q85 36 82 92l-1 18l-131 63l-89 -64l34 -32l76 51q13 8 23 8q25 0 25 -33q0 -89 -111 -99v-10h17q54 0 84 -31q24 -26 24 -62q0 -43 -33 -76l-126 96l-40 -38z" />
    <glyph glyph-name="acute" unicode="&#xb4;" horiz-adv-x="326" 
d="M291 665l-68 22q-59 -74 -147 -147l35 -15q120 65 180 140z" />
    <glyph glyph-name="mu" unicode="&#xb5;" horiz-adv-x="448" 
d="M145 -9l134 139q0 -66 15 -88q16 -21 54 -51h8l86 110l-10 10l-35 -38q-25 0 -25 39v262q0 13 9.5 25.5t18.5 15.5v7q-46 12 -71 79h-8q-22 -64 -71 -79v-7q29 -11 29 -41v-221l-82 -86q-30 35 -42 43v285q0 65 -64 102h-9l-81 -103l9 -9l28 31q25 -9 25 -40l2 -299
q1 -48 8.5 -104.5t23.5 -125.5h7q41 143 41 144z" />
    <glyph glyph-name="paragraph" unicode="&#xb6;" horiz-adv-x="461" 
d="M439 691v40h-245q-83 0 -136 -43q-58 -46 -58 -127q0 -82 65 -132q51 -39 120 -39l1 -386h51l1 686h90l1 -686h49l1 686z" />
    <glyph glyph-name="periodcentered" unicode="&#xb7;" horiz-adv-x="242" 
d="M197 329q-14 13 -33 32.5t-43 47.5l-80 -76q16 -22 34 -42t40 -37z" />
    <glyph glyph-name="periodcentered" unicode="&#x2219;" horiz-adv-x="242" 
d="M197 329q-14 13 -33 32.5t-43 47.5l-80 -76q16 -22 34 -42t40 -37z" />
    <glyph glyph-name="cedilla" unicode="&#xb8;" horiz-adv-x="246" 
d="M217 -140q0 41 -45 64q-37 17 -82 17l-1 76h-23v-29q0 -48 -6 -76q40 0 60 -6q34 -10 43 -37v-7q0 -23 -22 -41l-124 23l-17 -45l160 -29q57 45 57 90z" />
    <glyph glyph-name="onesuperior" unicode="&#xb9;" horiz-adv-x="202" 
d="M174 300l-7 5l-23 -19l-29 21v227q0 46 -46 77l-70 -56l5 -6l24 20q29 -20 29 -42v-214q0 -13 -14 -25l63 -44z" />
    <glyph glyph-name="ordmasculine" unicode="&#xba;" horiz-adv-x="265" 
d="M237 385v233q-53 8 -112 52q-46 -45 -101 -58v-170q0 -37 -19 -57q66 -14 126 -54q45 35 106 54zM171 584l-1 -197l-80 28l1 200l20.5 -9l19.5 -8q5 -2 14.5 -5.5t25.5 -8.5z" />
    <glyph glyph-name="guillemotright" unicode="&#xbb;" 
d="M366 234q-65 79 -126 168l-59 -36l105 -132l-105 -133l57 -34q16 26 31.5 47.5l29.5 40.5q23 29 67 79zM193 233l-76.5 98.5t-51.5 70.5l-60 -36l106 -132l-106 -133l57 -34q27 42 60 83t71 83z" />
    <glyph glyph-name="onequarter" unicode="&#xbc;" horiz-adv-x="655" 
d="M627 113l-12 38l-52 1l-1 136q0 30 -44 56l-153 -185l15 -46l127 -1q0 -7 1.5 -20t1.5 -20q0 -12 -21 -33l64 -39l58 45l-5 7l-20 -13l-24 16l1 57zM513 618h-43l-453 -621h40zM164 321l-5 5l-23 -19l-29 20v214q0 29 -17 48q-4 4 -10.5 9.5t-16.5 12.5l-65 -50l4 -8
l23 18q27 -17 27 -41v-194q0 -13 -15 -26l63 -43zM508 273l-1 -121h-125l-3 6l114 135q15 -15 15 -20z" />
    <glyph glyph-name="onehalf" unicode="&#xbd;" horiz-adv-x="633" 
d="M608 46q-39 19 -92 19q-60 0 -123 -23l-3 3q22 25 137 93q77 45 77 121v12l-132 73l-107 -78l37 -32l107 74q35 -29 35 -64q0 -48 -55 -93l-63 -51q-58 -46 -70 -100q60 19 103 19q41 0 107 -19zM513 618h-43l-453 -621h40zM164 321l-5 5l-23 -19l-29 20v214q0 29 -17 48
q-4 4 -10.5 9.5t-16.5 12.5l-65 -50l4 -8l23 18q27 -17 27 -41v-194q0 -13 -15 -26l63 -43z" />
    <glyph glyph-name="threequarters" unicode="&#xbe;" horiz-adv-x="761" 
d="M731 113l-10 38l-52 1l-1 136q0 30 -45 56l-152 -185l15 -46l128 -1l1 -39q0 -15 -21 -34l64 -39l58 45l-5 7l-19 -13l-24 16l1 57zM621 618h-43l-454 -621h41zM251 363q0 56 -94 87q83 35 80 86l-1 17l-127 57l-86 -58l32 -31l74 50q9 6 21 6q25 0 25 -32
q0 -79 -106 -91v-10q71 0 98 -29q23 -26 23 -57q0 -39 -34 -73l-118 89l-40 -35l98 -73q55 0 99 21q56 27 56 76zM615 273l-1 -121h-127l-3 6l113 136q5 -4 8 -5.5t4 -2.5q6 -6 6 -13z" />
    <glyph glyph-name="questiondown" unicode="&#xbf;" horiz-adv-x="286" 
d="M223 575q-34 46 -73 81l-81 -76q22 -22 40 -42t34 -40zM258 106q-34 -16 -46 -19q-26 -9 -46 -9l-10 1q-60 12 -60 80l-1 4l26 99l27 99q2 19 3.5 35.5t1.5 30.5v30h-24q0 -93 -53 -169q-63 -90 -74 -130q-2 -10 -2 -28q-1 -30 12.5 -56t36 -44.5t50 -28t54.5 -6.5l51 3z
" />
    <glyph glyph-name="Agrave" unicode="&#xc0;" horiz-adv-x="611" 
d="M474 745q-42 35 -76.5 72t-63.5 78l-67 -23q61 -81 172 -143zM581 82l-15 16l-32 -24q-28 27 -30 98l-8 339q-1 43 22 82q8 13 22 29t34 35l-2 2q-63 -15 -113 -72q-96 66 -201 66q-104 0 -173 -70q-69 -71 -69 -156l2 -22q8 -83 106 -174l-89 -132q-35 -53 -35 -83
q0 -26 22 -26q24 0 24 21q0 7 -5 20t-5 19q0 12 8.5 20.5t19.5 8.5q16 0 42 -14l142 -75l146 109q18 -77 73 -111zM391 283h-197l169 249h8l20 -29v-220zM342 551l-24 -36q-26 6 -57 6q-49 0 -79 -24q-33 -27 -33 -74q23 39 60 43l16 2q29 0 44 -24l-133 -195
q-88 70 -88 157q0 75 56 123q52 46 129 46q52 0 109 -24zM395 133l-84 -68l-204 94l37 54h251v-80z" />
    <glyph glyph-name="Aacute" unicode="&#xc1;" horiz-adv-x="611" 
d="M490 872l-69 23q-29 -42 -64 -79.5t-75 -70.5l35 -16q58 34 101 69.5t72 73.5zM581 82l-15 16l-32 -24q-28 27 -30 98l-8 339q-1 43 22 82q8 13 22 29t34 35l-2 2q-63 -15 -113 -72q-96 66 -201 66q-104 0 -173 -70q-69 -71 -69 -156l2 -22q8 -83 106 -174l-89 -132
q-35 -53 -35 -83q0 -26 22 -26q24 0 24 21q0 7 -5 20t-5 19q0 12 8.5 20.5t19.5 8.5q16 0 42 -14l142 -75l146 109q18 -77 73 -111zM391 283h-197l169 249h8l20 -29v-220zM342 551l-24 -36q-26 6 -57 6q-49 0 -79 -24q-33 -27 -33 -74q23 39 60 43l16 2q29 0 44 -24
l-133 -195q-88 70 -88 157q0 75 56 123q52 46 129 46q52 0 109 -24zM395 133l-84 -68l-204 94l37 54h251v-80z" />
    <glyph glyph-name="Acircumflex" unicode="&#xc2;" horiz-adv-x="611" 
d="M512 741q-64 79 -106 154h-50q-43 -77 -108 -154l13 -12q74 44 119 102q55 -67 117 -101zM581 82l-15 16l-32 -24q-28 27 -30 98l-8 339q-1 43 22 82q8 13 22 29t34 35l-2 2q-63 -15 -113 -72q-96 66 -201 66q-104 0 -173 -70q-69 -71 -69 -156l2 -22q8 -83 106 -174
l-89 -132q-35 -53 -35 -83q0 -26 22 -26q24 0 24 21q0 7 -5 20t-5 19q0 12 8.5 20.5t19.5 8.5q16 0 42 -14l142 -75l146 109q18 -77 73 -111zM391 283h-197l169 249h8l20 -29v-220zM342 551l-24 -36q-26 6 -57 6q-49 0 -79 -24q-33 -27 -33 -74q23 39 60 43l16 2
q29 0 44 -24l-133 -195q-88 70 -88 157q0 75 56 123q52 46 129 46q52 0 109 -24zM395 133l-84 -68l-204 94l37 54h251v-80z" />
    <glyph glyph-name="Atilde" unicode="&#xc3;" horiz-adv-x="611" 
d="M492 851l-18 5l-14 -24q-30 -6 -29 -6q-13 0 -87 20q-30 8 -52 8q-32 0 -51 -28l-13.5 -27l-13.5 -26l16 -6l16 29h17q17 0 95 -20q16 -4 29.5 -6t25.5 -2q33 0 52 28q6 9 27 55zM581 82l-15 16l-32 -24q-28 27 -30 98l-8 339q-1 43 22 82q8 13 22 29t34 35l-2 2
q-63 -15 -113 -72q-96 66 -201 66q-104 0 -173 -70q-69 -71 -69 -156l2 -22q8 -83 106 -174l-89 -132q-35 -53 -35 -83q0 -26 22 -26q24 0 24 21q0 7 -5 20t-5 19q0 12 8.5 20.5t19.5 8.5q16 0 42 -14l142 -75l146 109q18 -77 73 -111zM391 283h-197l169 249h8l20 -29v-220z
M342 551l-24 -36q-26 6 -57 6q-49 0 -79 -24q-33 -27 -33 -74q23 39 60 43l16 2q29 0 44 -24l-133 -195q-88 70 -88 157q0 75 56 123q52 46 129 46q52 0 109 -24zM395 133l-84 -68l-204 94l37 54h251v-80z" />
    <glyph glyph-name="Adieresis" unicode="&#xc4;" horiz-adv-x="611" 
d="M516 811l-28.5 29.5t-29.5 33.5l-63 -60l58 -62zM346 811q-9 8 -23 23l-35 40l-63 -60l16 -19t12 -13q15 -17 30 -30zM581 82l-15 16l-32 -24q-28 27 -30 98l-8 339q-1 43 22 82q8 13 22 29t34 35l-2 2q-63 -15 -113 -72q-96 66 -201 66q-104 0 -173 -70
q-69 -71 -69 -156l2 -22q8 -83 106 -174l-89 -132q-35 -53 -35 -83q0 -26 22 -26q24 0 24 21q0 7 -5 20t-5 19q0 12 8.5 20.5t19.5 8.5q16 0 42 -14l142 -75l146 109q18 -77 73 -111zM391 283h-197l169 249h8l20 -29v-220zM342 551l-24 -36q-26 6 -57 6q-49 0 -79 -24
q-33 -27 -33 -74q23 39 60 43l16 2q29 0 44 -24l-133 -195q-88 70 -88 157q0 75 56 123q52 46 129 46q52 0 109 -24zM395 133l-84 -68l-204 94l37 54h251v-80z" />
    <glyph glyph-name="Aring" unicode="&#xc5;" horiz-adv-x="611" 
d="M512 786q0 54 -33.5 86t-87.5 32t-87 -31.5t-33 -85.5t33 -87.5t87 -33.5t87.5 33t33.5 87zM581 82l-15 16l-32 -24q-28 27 -30 98l-8 339q-1 43 22 82q8 13 22 29t34 35l-2 2q-63 -15 -113 -72q-96 66 -201 66q-104 0 -173 -70q-69 -71 -69 -156l2 -22q8 -83 106 -174
l-89 -132q-35 -53 -35 -83q0 -26 22 -26q24 0 24 21q0 7 -5 20t-5 19q0 12 8.5 20.5t19.5 8.5q16 0 42 -14l142 -75l146 109q18 -77 73 -111zM466 786q0 -33 -21 -54.5t-54 -21.5q-34 0 -55 21t-21 55t21 54t55 20q33 0 54 -20.5t21 -53.5zM391 283h-197l169 249h8l20 -29
v-220zM342 551l-24 -36q-26 6 -57 6q-49 0 -79 -24q-33 -27 -33 -74q23 39 60 43l16 2q29 0 44 -24l-133 -195q-88 70 -88 157q0 75 56 123q52 46 129 46q52 0 109 -24zM395 133l-84 -68l-204 94l37 54h251v-80z" />
    <glyph glyph-name="AE" unicode="&#xc6;" horiz-adv-x="915" 
d="M889 159l-4 4q-26 -23 -49.5 -40t-44.5 -27q-47 -22 -112 -22v279h133l48 103h-92l116 148l-9 -1q-110 0 -175 53l-170 -168v-241q0 -47 -23 -73q-48 91 -48 254q0 84 22 132q25 56 91 96l-1 3q-79 0 -140 -72q-104 70 -190 70q-77 0 -144 -58q-73 -64 -73 -166
q0 -25 8 -55q23 -80 91 -151l-85 -126q-36 -53 -36 -85q0 -26 21 -26q25 0 25 21q0 7 -4 16q-7 18 -7 25q0 9 7.5 18.5t21.5 9.5q17 0 43 -14l141 -76l170 132q85 -135 230 -135q157 0 239 172zM781 504l-102 -137v182zM658 76q-101 18 -141 81q98 83 98 179v192l43 50v-502
zM380 489q-10 -42 -14 -77t-3 -64l2 -62h-172l162 237q9 -11 15 -20t10 -14zM335 543l-16 -24q-18 6 -56 6q-50 0 -80 -24q-33 -26 -33 -74q35 47 80 47q29 0 41 -26l-138 -202q-76 82 -76 165q0 69 45 119t115 50q59 0 118 -37zM409 144l-96 -77l-206 94l39 57h235
q11 -47 28 -74z" />
    <glyph glyph-name="Ccedilla" unicode="&#xc7;" horiz-adv-x="590" 
d="M566 165l-5 1l-49.5 -37t-20.5 -15q-59 -39 -122 -39q-8 0 -24 2.5t-24 2.5v474l70.5 -24.5t66.5 -25.5l86 94q-102 0 -196 57l-194 -164v-238q0 -50 -14 -76q-61 80 -61 171q0 145 121 245q-94 -31 -149 -121q-51 -84 -51 -188q0 -90 41 -161q68 -114 215 -131v-29
q0 -15 -4 -31q40 0 60 -6q34 -10 43 -37v-7q0 -23 -22 -41l-123 23l-18 -45l160 -29q57 45 57 90q0 41 -45 64q-36 17 -81 17l-1 29h13q18 0 34.5 1.5t31.5 3.5q130 21 205 170zM297 83q-92 22 -144 84q54 48 74 79q27 43 27 101v188l43 35v-487z" />
    <glyph glyph-name="Egrave" unicode="&#xc8;" horiz-adv-x="590" 
d="M393 745q-40 33 -75.5 70.5t-66.5 79.5l-66 -23q59 -81 171 -143zM566 165l-5 1q-114 -90 -203 -90l-37 4l1 273h157l49 103h-106l137 148l-12 -1q-43 -4 -109 12q-52 12 -93 40l-191 -164v-238q0 -50 -14 -76q-62 80 -62 170q0 69 33.5 135t88.5 111q-94 -31 -149 -121
q-51 -84 -51 -188q0 -88 41 -161q37 -64 109 -101q67 -32 145 -32q18 0 34.5 1.5t31.5 3.5q130 21 205 170zM437 504l-116 -126v173zM297 83q-91 24 -143 84q51 43 72 78q28 44 28 102v188l43 35v-487z" />
    <glyph glyph-name="Eacute" unicode="&#xc9;" horiz-adv-x="590" 
d="M438 872l-68 23q-31 -42 -66 -79.5t-73 -70.5l35 -16q111 62 172 143zM566 165l-5 1q-114 -90 -203 -90l-37 4l1 273h157l49 103h-106l137 148l-12 -1q-43 -4 -109 12q-52 12 -93 40l-191 -164v-238q0 -50 -14 -76q-62 80 -62 170q0 69 33.5 135t88.5 111
q-94 -31 -149 -121q-51 -84 -51 -188q0 -88 41 -161q37 -64 109 -101q67 -32 145 -32q18 0 34.5 1.5t31.5 3.5q130 21 205 170zM437 504l-116 -126v173zM297 83q-91 24 -143 84q51 43 72 78q28 44 28 102v188l43 35v-487z" />
    <glyph glyph-name="Ecircumflex" unicode="&#xca;" horiz-adv-x="590" 
d="M433 741q-29 35 -55.5 73.5t-51.5 80.5h-48q-50 -84 -108 -154l13 -11q71 41 120 101q23 -32 52 -57t64 -44zM566 165l-5 1q-114 -90 -203 -90l-37 4l1 273h157l49 103h-106l137 148l-12 -1q-43 -4 -109 12q-52 12 -93 40l-191 -164v-238q0 -50 -14 -76q-62 80 -62 170
q0 69 33.5 135t88.5 111q-94 -31 -149 -121q-51 -84 -51 -188q0 -88 41 -161q37 -64 109 -101q67 -32 145 -32q18 0 34.5 1.5t31.5 3.5q130 21 205 170zM437 504l-116 -126v173zM297 83q-91 24 -143 84q51 43 72 78q28 44 28 102v188l43 35v-487z" />
    <glyph glyph-name="Edieresis" unicode="&#xcb;" horiz-adv-x="590" 
d="M443 811q-7 6 -14.5 13.5t-15.5 17.5q-5 5 -12 13l-16 19l-61 -60q11 -14 18 -22t9 -10l30 -30zM275 811q-20 20 -34.5 36l-24.5 27l-62 -60q11 -14 18 -22t9 -10l30 -30zM566 165l-5 1q-114 -90 -203 -90l-37 4l1 273h157l49 103h-106l137 148l-12 -1q-43 -4 -109 12
q-52 12 -93 40l-191 -164v-238q0 -50 -14 -76q-62 80 -62 170q0 69 33.5 135t88.5 111q-94 -31 -149 -121q-51 -84 -51 -188q0 -88 41 -161q37 -64 109 -101q67 -32 145 -32q18 0 34.5 1.5t31.5 3.5q130 21 205 170zM437 504l-116 -126v173zM297 83q-91 24 -143 84
q51 43 72 78q28 44 28 102v188l43 35v-487z" />
    <glyph glyph-name="Igrave" unicode="&#xcc;" horiz-adv-x="502" 
d="M384 745q-80 67 -141 150l-66 -23q59 -81 171 -143zM468 649v7q-147 0 -147 -203q0 -33 7 -93.5t21 -148.5q0 -8 1 -20t3 -29t3 -29t1 -20q0 -36 -10.5 -58t-37.5 -27l-11 -2q-52 0 -115 73q106 0 106 112q0 16 -18 150q-4 26 -5.5 50t-1.5 47q0 128 83 196l-1 3
q-58 -14 -80 -14q-8 0 -62 9q-12 2 -24 3t-25 1h-7q-45 0 -75.5 -30t-40.5 -75l6 -1q22 46 56 46h6q15 0 44 -6l26 -3.5t18 -1.5q31 0 78 22q-48 -56 -64 -95q-17 -41 -24 -113q-45 0 -79.5 -21.5t-45.5 -63.5q49 18 77 18q32 0 48 -16q33 -30 33 -113q0 -33 -7 -60
q-13 -30 -65 -29l-22 1l-22 -1q-45 -7 -70 -43t-25 -82l2 -1q29 50 76 50q25 0 111 -31q53 -17 86 -17h11q84 0 129 88q28 55 28 138q0 23 -6 75.5t-19 137.5q-5 42 -7.5 71.5t-3.5 46.5l-1 17q-2 36 13 56q13 17 49 29z" />
    <glyph glyph-name="Iacute" unicode="&#xcd;" horiz-adv-x="502" 
d="M429 872l-67 23q-31 -42 -66 -79.5t-73 -70.5l35 -16q111 62 171 143zM468 649v7q-147 0 -147 -203q0 -33 7 -93.5t21 -148.5q0 -8 1 -20t3 -29t3 -29t1 -20q0 -36 -10.5 -58t-37.5 -27l-11 -2q-52 0 -115 73q106 0 106 112q0 16 -18 150q-4 26 -5.5 50t-1.5 47
q0 128 83 196l-1 3q-58 -14 -80 -14q-8 0 -62 9q-12 2 -24 3t-25 1h-7q-45 0 -75.5 -30t-40.5 -75l6 -1q22 46 56 46h6q15 0 44 -6l26 -3.5t18 -1.5q31 0 78 22q-48 -56 -64 -95q-17 -41 -24 -113q-45 0 -79.5 -21.5t-45.5 -63.5q49 18 77 18q32 0 48 -16q33 -30 33 -113
q0 -33 -7 -60q-13 -30 -65 -29l-22 1l-22 -1q-45 -7 -70 -43t-25 -82l2 -1q29 50 76 50q25 0 111 -31q53 -17 86 -17h11q84 0 129 88q28 55 28 138q0 23 -6 75.5t-19 137.5q-5 42 -7.5 71.5t-3.5 46.5l-1 17q-2 36 13 56q13 17 49 29z" />
    <glyph glyph-name="Icircumflex" unicode="&#xce;" horiz-adv-x="502" 
d="M425 741q-63 76 -107 154h-50q-38 -68 -106 -154l13 -11q71 41 120 101q49 -65 114 -101zM468 649v7q-147 0 -147 -203q0 -33 7 -93.5t21 -148.5q0 -8 1 -20t3 -29t3 -29t1 -20q0 -36 -10.5 -58t-37.5 -27l-11 -2q-52 0 -115 73q106 0 106 112q0 16 -18 150
q-4 26 -5.5 50t-1.5 47q0 128 83 196l-1 3q-58 -14 -80 -14q-8 0 -62 9q-12 2 -24 3t-25 1h-7q-45 0 -75.5 -30t-40.5 -75l6 -1q22 46 56 46h6q15 0 44 -6l26 -3.5t18 -1.5q31 0 78 22q-48 -56 -64 -95q-17 -41 -24 -113q-45 0 -79.5 -21.5t-45.5 -63.5q49 18 77 18
q32 0 48 -16q33 -30 33 -113q0 -33 -7 -60q-13 -30 -65 -29l-22 1l-22 -1q-45 -7 -70 -43t-25 -82l2 -1q29 50 76 50q25 0 111 -31q53 -17 86 -17h11q84 0 129 88q28 55 28 138q0 23 -6 75.5t-19 137.5q-5 42 -7.5 71.5t-3.5 46.5l-1 17q-2 36 13 56q13 17 49 29z" />
    <glyph glyph-name="Idieresis" unicode="&#xcf;" horiz-adv-x="502" 
d="M436 811q-20 20 -34.5 36l-24.5 27l-62 -60l57 -62zM265 811q-7 6 -14.5 13.5t-15.5 17.5q-5 5 -12 13l-16 19l-61 -60q5 -7 12 -14.5l16 -17.5l28 -30zM468 649v7q-147 0 -147 -203q0 -33 7 -93.5t21 -148.5q0 -8 1 -20t3 -29t3 -29t1 -20q0 -36 -10.5 -58t-37.5 -27
l-11 -2q-52 0 -115 73q106 0 106 112q0 16 -18 150q-4 26 -5.5 50t-1.5 47q0 128 83 196l-1 3q-58 -14 -80 -14q-8 0 -62 9q-12 2 -24 3t-25 1h-7q-45 0 -75.5 -30t-40.5 -75l6 -1q22 46 56 46h6q15 0 44 -6l26 -3.5t18 -1.5q31 0 78 22q-48 -56 -64 -95q-17 -41 -24 -113
q-45 0 -79.5 -21.5t-45.5 -63.5q49 18 77 18q32 0 48 -16q33 -30 33 -113q0 -33 -7 -60q-13 -30 -65 -29l-22 1l-22 -1q-45 -7 -70 -43t-25 -82l2 -1q29 50 76 50q25 0 111 -31q53 -17 86 -17h11q84 0 129 88q28 55 28 138q0 23 -6 75.5t-19 137.5q-5 42 -7.5 71.5
t-3.5 46.5l-1 17q-2 36 13 56q13 17 49 29z" />
    <glyph glyph-name="Eth" unicode="&#xd0;" horiz-adv-x="464" 
d="M450 606l-95 23q-57 -50 -111 -74v-102h-41l-8 -51h49v-257q0 -61 -35 -75l-65 35v450l91 -18l20 69l-95 23q-57 -50 -111 -74v-102h-41l-8 -51h49v-257q0 -49 -26 -75q56 -16 133 -75l33 31.5t44 38.5q24 -8 53.5 -26t64.5 -44l44 40l44 40l-12 13l-23 -18l-65 35v450
l91 -18z" />
    <glyph glyph-name="Ntilde" unicode="&#xd1;" horiz-adv-x="783" 
d="M595 851l-17 5l-14 -24l-14 -3q-11 -3 -16 -3q-13 0 -87 20q-30 8 -52 8q-32 0 -51 -27q-5 -5 -27 -54l16 -6l16 29h17q17 0 95 -20q16 -4 29.5 -6t25.5 -2q38 0 59 41l12 24.5t8 17.5zM752 105l-17 11l-17 -23q-30 5 -51.5 7.5t-35.5 2.5q-41 0 -79 -13q157 194 157 332
q0 165 -218 234l-242 -148l-2 -82q-50 14 -70 14q-39 0 -67 -27q113 0 137 -111q-39 19 -75 19q-40 0 -62 -33l23 2q85 7 115 -92q-22 5 -46 5q-43 0 -70 -35h24q45 0 83 -21q43 -25 43 -69q0 -27 -18.5 -42.5t-46.5 -15.5l-17 -2q-7 0 -15 0.5t-16 1.5q-21 2 -33.5 3.5
t-16.5 1.5h-16q-30 0 -64 -26q-21 -17 -44 -50l1 -3q33 16 62 16q22 0 61 -11q69 -20 88 -20h12q79 0 132 63q50 59 50 140v109q55 34 94 34q44 0 84 -34l-33 -75l-33 -74q-37 -90 -50 -154l6 -6q45 68 122 68q42 0 94 -13zM598 427q-44 -45 -93 -45t-104 42l1 132
q68 -6 117 -37q58 -34 79 -92zM608 363q0 -35 -20 -98q-43 28 -90 28q-49 0 -96 -28v134q52 -34 103 -34t98 39q2 -16 3.5 -26t1.5 -15zM380 153l-1 -8q0 -138 -102 -138l-8 2l-1 4q43 24 60 69q12 34 12 93v359l38 20z" />
    <glyph glyph-name="Ograve" unicode="&#xd2;" horiz-adv-x="677" 
d="M391 745q-42 35 -76.5 72t-63.5 78l-67 -23q61 -81 172 -143zM653 378q0 33 -11 69q-29 93 -117 148q-77 50 -182 62l-83.5 -59.5l-72.5 -50.5l-80.5 -52.5t-79.5 -48.5q-30 -92 -30 -182q0 -66 21 -123q26 -68 84 -110q59 -41 131 -41q130 0 268 120q152 134 152 268z
M518 445q-43 -49 -95 -49q-51 0 -106 47l1 114q74 -14 113 -34q54 -27 87 -78zM557 333q0 -29 -16 -73q-55 49 -111 49q-53 0 -112 -38v143q50 -32 101 -32q58 0 111 45q27 -44 27 -94zM532 233q-81 -159 -214 -159l-1 169q58 50 110 50q58 0 105 -60zM293 74q-69 0 -139 70
q70 74 81 95q18 31 18 72l1 249h39v-486zM166 253q0 -51 -26 -92q-61 71 -61 156q0 110 85 195z" />
    <glyph glyph-name="Oacute" unicode="&#xd3;" horiz-adv-x="677" 
d="M437 872l-69 23q-29 -42 -64 -79.5t-75 -70.5l35 -16q58 34 101 69.5t72 73.5zM653 378q0 33 -11 69q-29 93 -117 148q-77 50 -182 62l-83.5 -59.5l-72.5 -50.5l-80.5 -52.5t-79.5 -48.5q-30 -92 -30 -182q0 -66 21 -123q26 -68 84 -110q59 -41 131 -41q130 0 268 120
q152 134 152 268zM518 445q-43 -49 -95 -49q-51 0 -106 47l1 114q74 -14 113 -34q54 -27 87 -78zM557 333q0 -29 -16 -73q-55 49 -111 49q-53 0 -112 -38v143q50 -32 101 -32q58 0 111 45q27 -44 27 -94zM532 233q-81 -159 -214 -159l-1 169q58 50 110 50q58 0 105 -60z
M293 74q-69 0 -139 70q70 74 81 95q18 31 18 72l1 249h39v-486zM166 253q0 -51 -26 -92q-61 71 -61 156q0 110 85 195z" />
    <glyph glyph-name="Ocircumflex" unicode="&#xd4;" horiz-adv-x="677" 
d="M431 741q-66 84 -105 154h-50q-43 -77 -108 -154l13 -12q74 44 119 102q52 -65 117 -101zM653 378q0 33 -11 69q-29 93 -117 148q-77 50 -182 62l-83.5 -59.5l-72.5 -50.5l-80.5 -52.5t-79.5 -48.5q-30 -92 -30 -182q0 -66 21 -123q26 -68 84 -110q59 -41 131 -41
q130 0 268 120q152 134 152 268zM518 445q-43 -49 -95 -49q-51 0 -106 47l1 114q74 -14 113 -34q54 -27 87 -78zM557 333q0 -29 -16 -73q-55 49 -111 49q-53 0 -112 -38v143q50 -32 101 -32q58 0 111 45q27 -44 27 -94zM532 233q-81 -159 -214 -159l-1 169q58 50 110 50
q58 0 105 -60zM293 74q-69 0 -139 70q70 74 81 95q18 31 18 72l1 249h39v-486zM166 253q0 -51 -26 -92q-61 71 -61 156q0 110 85 195z" />
    <glyph glyph-name="Otilde" unicode="&#xd5;" horiz-adv-x="677" 
d="M439 851l-18 5l-14 -24q-30 -6 -29 -6q-14 0 -88 20q-30 8 -51 8q-32 0 -51 -28l-13.5 -27l-13.5 -26l16 -6l16 29h16q17 0 95 -20q16 -4 29.5 -6t25.5 -2q33 0 52 28q2 2 8.5 16t19.5 39zM653 378q0 33 -11 69q-29 93 -117 148q-77 50 -182 62l-83.5 -59.5l-72.5 -50.5
l-80.5 -52.5t-79.5 -48.5q-30 -92 -30 -182q0 -66 21 -123q26 -68 84 -110q59 -41 131 -41q130 0 268 120q152 134 152 268zM518 445q-43 -49 -95 -49q-51 0 -106 47l1 114q74 -14 113 -34q54 -27 87 -78zM557 333q0 -29 -16 -73q-55 49 -111 49q-53 0 -112 -38v143
q50 -32 101 -32q58 0 111 45q27 -44 27 -94zM532 233q-81 -159 -214 -159l-1 169q58 50 110 50q58 0 105 -60zM293 74q-69 0 -139 70q70 74 81 95q18 31 18 72l1 249h39v-486zM166 253q0 -51 -26 -92q-61 71 -61 156q0 110 85 195z" />
    <glyph glyph-name="Odieresis" unicode="&#xd6;" horiz-adv-x="677" 
d="M443 811q-9 8 -23 23l-35 40l-63 -60l24 -26.5t34 -35.5zM273 811l-31.5 32.5t-26.5 30.5l-63 -60l57 -62zM653 378q0 33 -11 69q-29 93 -117 148q-77 50 -182 62l-83.5 -59.5l-72.5 -50.5l-80.5 -52.5t-79.5 -48.5q-30 -92 -30 -182q0 -66 21 -123q26 -68 84 -110
q59 -41 131 -41q130 0 268 120q152 134 152 268zM518 445q-43 -49 -95 -49q-51 0 -106 47l1 114q74 -14 113 -34q54 -27 87 -78zM557 333q0 -29 -16 -73q-55 49 -111 49q-53 0 -112 -38v143q50 -32 101 -32q58 0 111 45q27 -44 27 -94zM532 233q-81 -159 -214 -159l-1 169
q58 50 110 50q58 0 105 -60zM293 74q-69 0 -139 70q70 74 81 95q18 31 18 72l1 249h39v-486zM166 253q0 -51 -26 -92q-61 71 -61 156q0 110 85 195z" />
    <glyph glyph-name="multiply" unicode="&#xd7;" horiz-adv-x="483" 
d="M424 173l-132 131l127 128l-47 47l-127 -127l-132 131l-49 -48l132 -132l-128 -128l47 -47l128 128l132 -132z" />
    <glyph glyph-name="Oslash" unicode="&#xd8;" horiz-adv-x="718" 
d="M693 377q0 109 -112 211l78 90h-51l-63 -70q-62 35 -161 49l-83 -59.5l-72 -50.5l-82 -53l-78 -48q-34 -96 -34 -185q0 -109 56 -180l-88 -105h44l72 77q67 -63 154 -63q77 0 168 50q79 44 141 109q111 115 111 228zM560 445q-41 -47 -97 -47q-10 2 -19.5 3.5t-19.5 3.5
l84 98q18 -16 31 -30.5t21 -27.5zM478 524l-121 -141l1 174q69 -11 120 -33zM599 333q0 -29 -16 -73q-55 49 -113 49q-53 0 -112 -38l-1 60l53 60q30 -8 54 -8q60 0 106 43q29 -46 29 -93zM338 363l-54 -63l1 257l52 3zM572 233q-33 -70 -85 -111q-59 -48 -129 -48l-1 169
q59 50 110 50q60 0 105 -60zM208 266q0 -49 -39 -92q-46 76 -46 153q0 105 83 185zM337 74q-74 0 -144 70l143 159z" />
    <glyph glyph-name="Ugrave" unicode="&#xd9;" horiz-adv-x="740" 
d="M499 745q-75 64 -141 150l-65 -23q62 -83 171 -143zM717 77l-10 14l-33 -28q-18 22 -18 68v399q0 50 41 100l-8 5l-48 -40l-91 60l-99 -116l13 -11l33 38l45 -31v-120q-37 -22 -73 -22t-77 22v241h-23q-31 -25 -77 -25q-27 0 -79 12q-51 13 -80 13q-70 0 -108 -56
q-30 -48 -30 -123l8 3q37 89 116 97h23q6 0 14.5 -0.5t18.5 -1t18.5 -1t14.5 -0.5q13 0 33.5 3.5t49.5 10.5l1 -4q-45 -23 -80 -46.5t-61 -48.5q-62 -59 -91 -142q-19 -53 -19 -100q0 -92 58 -168q69 -89 196 -89q16 0 32 1.5t32 5.5q88 18 182 115q15 -76 67 -123h20z
M541 287q-39 17 -74 17q-37 0 -74 -17v106q40 -18 74 -18q33 0 74 18v-106zM542 141q-73 -49 -149 -56l-1 182q43 21 77 21q31 0 73 -21v-126zM370 83q-94 0 -154 48q113 72 113 191v205q0 57 40 97zM322 584q-82 -82 -82 -171l1 -165q0 -66 -39 -105q-57 72 -57 163
q0 6 3 33q0 4 0.5 8.5t1.5 10.5q22 141 172 226z" />
    <glyph glyph-name="Uacute" unicode="&#xda;" horiz-adv-x="740" 
d="M546 872l-68 23q-34 -43 -68.5 -80.5t-71.5 -69.5l35 -16q114 65 173 143zM717 77l-10 14l-33 -28q-18 22 -18 68v399q0 50 41 100l-8 5l-48 -40l-91 60l-99 -116l13 -11l33 38l45 -31v-120q-37 -22 -73 -22t-77 22v241h-23q-31 -25 -77 -25q-27 0 -79 12q-51 13 -80 13
q-70 0 -108 -56q-30 -48 -30 -123l8 3q37 89 116 97h23q6 0 14.5 -0.5t18.5 -1t18.5 -1t14.5 -0.5q13 0 33.5 3.5t49.5 10.5l1 -4q-45 -23 -80 -46.5t-61 -48.5q-62 -59 -91 -142q-19 -53 -19 -100q0 -92 58 -168q69 -89 196 -89q16 0 32 1.5t32 5.5q88 18 182 115
q15 -76 67 -123h20zM541 287q-39 17 -74 17q-37 0 -74 -17v106q40 -18 74 -18q33 0 74 18v-106zM542 141q-73 -49 -149 -56l-1 182q43 21 77 21q31 0 73 -21v-126zM370 83q-94 0 -154 48q113 72 113 191v205q0 57 40 97zM322 584q-82 -82 -82 -171l1 -165q0 -66 -39 -105
q-57 72 -57 163q0 6 3 33q0 4 0.5 8.5t1.5 10.5q22 141 172 226z" />
    <glyph glyph-name="Ucircumflex" unicode="&#xdb;" horiz-adv-x="740" 
d="M541 741q-63 76 -108 154h-49q-38 -68 -106 -154l13 -11q74 45 119 101q47 -63 115 -101zM717 77l-10 14l-33 -28q-18 22 -18 68v399q0 50 41 100l-8 5l-48 -40l-91 60l-99 -116l13 -11l33 38l45 -31v-120q-37 -22 -73 -22t-77 22v241h-23q-31 -25 -77 -25q-27 0 -79 12
q-51 13 -80 13q-70 0 -108 -56q-30 -48 -30 -123l8 3q37 89 116 97h23q6 0 14.5 -0.5t18.5 -1t18.5 -1t14.5 -0.5q13 0 33.5 3.5t49.5 10.5l1 -4q-45 -23 -80 -46.5t-61 -48.5q-62 -59 -91 -142q-19 -53 -19 -100q0 -92 58 -168q69 -89 196 -89q16 0 32 1.5t32 5.5
q88 18 182 115q15 -76 67 -123h20zM541 287q-39 17 -74 17q-37 0 -74 -17v106q40 -18 74 -18q33 0 74 18v-106zM542 141q-73 -49 -149 -56l-1 182q43 21 77 21q31 0 73 -21v-126zM370 83q-94 0 -154 48q113 72 113 191v205q0 57 40 97zM322 584q-82 -82 -82 -171l1 -165
q0 -66 -39 -105q-57 72 -57 163q0 6 3 33q0 4 0.5 8.5t1.5 10.5q22 141 172 226z" />
    <glyph glyph-name="Udieresis" unicode="&#xdc;" horiz-adv-x="740" 
d="M551 811q-7 6 -14.5 13.5t-15.5 17.5q-5 5 -12 13l-16 19l-63 -60l58 -62zM381 811l-30 31.5t-29 31.5l-61 -60l24 -26.5t34 -35.5zM717 77l-10 14l-33 -28q-18 22 -18 68v399q0 50 41 100l-8 5l-48 -40l-91 60l-99 -116l13 -11l33 38l45 -31v-120q-37 -22 -73 -22
t-77 22v241h-23q-31 -25 -77 -25q-27 0 -79 12q-51 13 -80 13q-70 0 -108 -56q-30 -48 -30 -123l8 3q37 89 116 97h23q6 0 14.5 -0.5t18.5 -1t18.5 -1t14.5 -0.5q13 0 33.5 3.5t49.5 10.5l1 -4q-45 -23 -80 -46.5t-61 -48.5q-62 -59 -91 -142q-19 -53 -19 -100
q0 -92 58 -168q69 -89 196 -89q16 0 32 1.5t32 5.5q88 18 182 115q15 -76 67 -123h20zM541 287q-39 17 -74 17q-37 0 -74 -17v106q40 -18 74 -18q33 0 74 18v-106zM542 141q-73 -49 -149 -56l-1 182q43 21 77 21q31 0 73 -21v-126zM370 83q-94 0 -154 48q113 72 113 191v205
q0 57 40 97zM322 584q-82 -82 -82 -171l1 -165q0 -66 -39 -105q-57 72 -57 163q0 6 3 33q0 4 0.5 8.5t1.5 10.5q22 141 172 226z" />
    <glyph glyph-name="Yacute" unicode="&#xdd;" horiz-adv-x="633" 
d="M614 388q0 17 -1.5 36.5t-5.5 42.5q-10 69 -56 116q-48 49 -117 49q-76 0 -180 -74q-13 43 -47.5 69t-79.5 26q-37 0 -80 -21v-5h5q55 0 77 -26.5t20 -83.5l-2 -70q-26 10 -66 10q-22 0 -37 -7q57 -26 78 -53q27 -33 27 -89l-2 -11q-36 18 -84 18h-22v-4q29 -13 52 -33
t40 -46q17 -30 16 -73l-1 -33q-60 0 -101 -32q-45 -35 -45 -94q0 -56 41 -97t98 -41q40 0 78 18l90.5 45t64.5 33q12 6 20 6q12 0 13 -7q3 -3 4 -9q0 -8 -11 -28l-4 -17q0 -29 24 -36l16 -3q35 0 35 45q0 26 -17 46q-32 35 -84 35q-37 0 -114 -28l-56 -21.5l-56 -21.5
l-28 -1q-42 -1 -68.5 22t-26.5 62q0 55 51 81q40 21 100 21h170q131 0 203 77q69 75 69 207zM492 447q-52 -38 -90 -38q-41 0 -85 34v125q37 14 60 14q92 0 115 -135zM500 358q0 -22 -6 -73q-50 30 -96 30q-43 0 -80 -24v126q39 -24 80 -24q47 0 97 35q0 -12 2.5 -35
t2.5 -35zM489 265q-20 -78 -65 -117q-31 -26 -93 -26h-14v148q41 29 83 29q45 0 89 -34zM295 122h-45v413l45 21v-434zM526 872l-68 23q-34 -43 -68.5 -80.5t-71.5 -69.5l35 -16q114 65 173 143z" />
    <glyph glyph-name="Thorn" unicode="&#xde;" horiz-adv-x="584" 
d="M551 104v244q0 73 -66 117l-140 -103v177q0 54 43 91q-52 0 -96 -50l-15 -1q-25 19 -62 33l-2 -2q34 -31 34 -100v-100l-91 57q-28 -25 -58.5 -45t-64.5 -34v-255q0 -47 -27 -71q66 -14 138 -64q16 10 39 27l37 28l73 -59l76 66l-26 29v247l79 59q32 -20 38 -47v-280
q0 -72 -53 -111q-14 -10 -44.5 -24.5t-79.5 -33.5l3 -6q104 20 172 65q93 58 93 146zM247 92l-35 -26l-88 44v284l90 -51l33 47v-298z" />
    <glyph glyph-name="germandbls" unicode="&#xdf;" horiz-adv-x="466" 
d="M438 150v21q0 58 -42 91q-38 32 -97 32l109 106q-27 3 -56 26l-27 24l-19 17l-160 -108l-1 196l90 -18l20 69l-95 23q-59 -52 -109 -74l-2 -102l-41 -2l-8 -48l49 -1l2 -257q0 -47 -28 -75q56 -16 133 -75l44 40l44 40l-12 13l-23 -18l-65 35v234l103 67l71 -65
l-128 -124l48.5 6t18.5 2q19 0 39 -7q48 -17 48 -74q0 -37 -18 -67l-55 -50.5l-39 -35.5q-25 -22 -25 -55q0 -27 24 -46q25 -21 51 -21q24 0 24 15v5q0 8 -12 8q-5 0 -16 -2.5t-16 -2.5q-39 0 -39 38q0 32 22 47l60.5 31.5t42.5 23.5q74 44 90 118z" />
    <glyph glyph-name="agrave" unicode="&#xe0;" 
d="M287 540q-93 73 -150 147l-66 -22q63 -78 179 -140zM365 69l-11 9l-18 -9q-21 6 -28 31v262q10 40 34 77l-2 4l-28 -22l-142 47q-47 -44 -103 -39l-13 1l48 -125q-99 -89 -99 -181q0 -62 71 -128h5l136 109q0 -74 64 -108zM216 367l-1 -110l-103 50l-42 114zM217 131
l-76 -64q-58 58 -58 126q0 46 29 98l104 -52z" />
    <glyph glyph-name="aacute" unicode="&#xe1;" 
d="M335 665l-70 22q-56 -71 -146 -147l35 -15q58 31 103.5 65.5t77.5 74.5zM365 69l-11 9l-18 -9q-21 6 -28 31v262q10 40 34 77l-2 4l-28 -22l-142 47q-47 -44 -103 -39l-13 1l48 -125q-99 -89 -99 -181q0 -62 71 -128h5l136 109q0 -74 64 -108zM216 367l-1 -110l-103 50
l-42 114zM217 131l-76 -64q-58 58 -58 126q0 46 29 98l104 -52z" />
    <glyph glyph-name="acircumflex" unicode="&#xe2;" 
d="M330 536q-59 63 -114 150h-51q-54 -87 -110 -150l12 -9q79 43 126 99q46 -60 122 -99zM365 69l-11 9l-18 -9q-21 6 -28 31v262q10 40 34 77l-2 4l-28 -22l-142 47q-47 -44 -103 -39l-13 1l48 -125q-99 -89 -99 -181q0 -62 71 -128h5l136 109q0 -74 64 -108zM216 367
l-1 -110l-103 50l-42 114zM217 131l-76 -64q-58 58 -58 126q0 46 29 98l104 -52z" />
    <glyph glyph-name="atilde" unicode="&#xe3;" 
d="M338 643l-17 6l-15 -24q-27 -7 -31 -7q-25 0 -74 15q-50 15 -74 15q-34 0 -53 -28q-3 -3 -28 -52l13 -5l18 28h19q9 0 33.5 -5t66.5 -15q35 -8 59 -8q33 0 54 28q14 27 29 52zM365 69l-11 9l-18 -9q-21 6 -28 31v262q10 40 34 77l-2 4l-28 -22l-142 47q-47 -44 -103 -39
l-13 1l48 -125q-99 -89 -99 -181q0 -62 71 -128h5l136 109q0 -74 64 -108zM216 367l-1 -110l-103 50l-42 114zM217 131l-76 -64q-58 58 -58 126q0 46 29 98l104 -52z" />
    <glyph glyph-name="adieresis" unicode="&#xe4;" 
d="M340 605l-28.5 27.5l-30.5 31.5l-65 -56l60 -58zM160 605l-60 59l-63 -56q9 -11 24 -25.5l35 -33.5zM365 69l-11 9l-18 -9q-21 6 -28 31v262q10 40 34 77l-2 4l-28 -22l-142 47q-47 -44 -103 -39l-13 1l48 -125q-99 -89 -99 -181q0 -62 71 -128h5l136 109q0 -74 64 -108z
M216 367l-1 -110l-103 50l-42 114zM217 131l-76 -64q-58 58 -58 126q0 46 29 98l104 -52z" />
    <glyph glyph-name="aring" unicode="&#xe5;" 
d="M326 626q0 54 -37 85q-35 29 -89 29t-89 -29q-37 -31 -37 -85t35.5 -85t89.5 -31q26 0 49 8.5t40.5 23.5t27.5 36.5t10 47.5zM365 69l-11 9l-18 -9q-21 6 -28 31v262q10 40 34 77l-2 4l-28 -22l-142 47q-47 -44 -103 -39l-13 1l48 -125q-99 -89 -99 -181q0 -62 71 -128h5
l136 109q0 -74 64 -108zM282 626q0 -35 -23.5 -55.5t-59.5 -20.5q-33 0 -56 21.5t-23 54.5t23 53.5t56 20.5q34 0 58.5 -20.5t24.5 -53.5zM216 367l-1 -110l-103 50l-42 114zM217 131l-76 -64q-58 58 -58 126q0 46 29 98l104 -52z" />
    <glyph glyph-name="ae" unicode="&#xe6;" horiz-adv-x="512" 
d="M483 339l-127 128q-35 -24 -70 -38l-109 39q-46 -43 -104 -39l-13 1l46 -127q-96 -87 -96 -179q0 -63 71 -128h5l136 109q0 -34 11 -64l50 -22l46 -22l70 49l37.5 26.5t33.5 22.5l-10 12l-66 -41l-82 37v104l41 33.5l43 33.5zM411 305l-97 -75v172zM223 369l-1 -112
l-101 50l-46 116zM224 133l-75 -66q-58 54 -58 124q0 50 30 100l102 -52z" />
    <glyph glyph-name="ccedilla" unicode="&#xe7;" horiz-adv-x="303" 
d="M265 87l-10 11l-43 -32l-88 44l2 284l88 -51l43 61l-101 63q-28 -25 -58.5 -45t-64.5 -34v-255q0 -47 -27 -71q44 -9 88 -33v-41q0 -36 -6 -73q93 0 109 -43v-7q0 -21 -24 -40l-131 21l-18 -42l168 -28q60 43 60 87q0 41 -49 63q-36 16 -85 16l-1 73l27 -17l60 44z" />
    <glyph glyph-name="egrave" unicode="&#xe8;" horiz-adv-x="326" 
d="M244 540q-92 73 -150 147l-66 -22q63 -78 179 -140zM296 338l-129 129q-33 -23 -66.5 -43t-68.5 -36v-267q0 -44 -28 -73q71 -13 138 -50l87 61q15 11 28.5 20l26.5 17l-11 12l-66 -42l-84 37v104q63 54 173 131zM217 305l-95 -75v172z" />
    <glyph glyph-name="eacute" unicode="&#xe9;" horiz-adv-x="326" 
d="M291 665l-68 22q-59 -74 -147 -147l35 -15q120 65 180 140zM296 338l-129 129q-33 -23 -66.5 -43t-68.5 -36v-267q0 -44 -28 -73q71 -13 138 -50l87 61q15 11 28.5 20l26.5 17l-11 12l-66 -42l-84 37v104q63 54 173 131zM217 305l-95 -75v172z" />
    <glyph glyph-name="ecircumflex" unicode="&#xea;" horiz-adv-x="326" 
d="M286 536q-58 66 -112 150h-50q-34 -52 -52 -76l-28 -35.5l-32 -38.5l12 -10q80 43 125 100q51 -59 124 -99zM296 338l-129 129q-33 -23 -66.5 -43t-68.5 -36v-267q0 -44 -28 -73q71 -13 138 -50l87 61q15 11 28.5 20l26.5 17l-11 12l-66 -42l-84 37v104q63 54 173 131z
M217 305l-95 -75v172z" />
    <glyph glyph-name="edieresis" unicode="&#xeb;" horiz-adv-x="326" 
d="M304 605q-14 12 -28.5 27l-31.5 32l-64 -56l13 -14.5l15 -15.5l12 -12t18 -17zM123 605l-28.5 27.5l-30.5 31.5l-64 -56l58 -59zM303 338l-129 129q-35 -24 -69.5 -43.5t-68.5 -35.5v-267q0 -44 -26 -73q67 -13 139 -50l82 56.5l58 41.5l-10 11l-65 -41l-87 37v104
l87.5 67.5zM224 305l-98 -75v172z" />
    <glyph glyph-name="igrave" unicode="&#xec;" horiz-adv-x="261" 
d="M219 540q-93 73 -150 147l-66 -22q63 -78 179 -140zM228 69l-13 9l-16 -11q-20 11 -28 31v277l27 28l-78 64l-74 -61l28 -31v-261l-1 -11q0 -76 62 -109z" />
    <glyph glyph-name="iacute" unicode="&#xed;" horiz-adv-x="261" 
d="M223 665l-70 22q-59 -77 -147 -147l37 -15q120 65 180 140zM184 68l-11 10l-17 -12q-21 11 -29 32v277l25 28l-76 64l-75 -61l30 -31l1 -261l-2 -18q0 -68 63 -102z" />
    <glyph glyph-name="icircumflex" unicode="&#xee;" horiz-adv-x="303" 
d="M278 536q-68 75 -112 150h-53q-37 -64 -110 -150l12 -9q76 40 127 99q50 -62 121 -99zM244 68l-12 10l-17 -12q-19 9 -27 32v277l25 28l-77 64l-76 -61l30 -31l1 -261l-2 -11q0 -79 63 -110z" />
    <glyph glyph-name="idieresis" unicode="&#xef;" horiz-adv-x="326" 
d="M301 605l-35 34.5l-25 24.5l-63 -56l13 -14.5l15 -15.5l12 -12t18 -17zM122 605l-61 59l-62 -56q10 -14 27 -30l12 -12t18 -17zM257 69l-12 9l-16 -11q-23 12 -30 31v277l26 28l-76 64l-74 -61l28 -31v-261l-2 -11q0 -78 63 -109z" />
    <glyph glyph-name="eth" unicode="&#xf0;" horiz-adv-x="430" 
d="M403 156q0 53 -42 83q-38 26 -92 26l122 122q-29 5 -55 26q-5 4 -16 13.5t-28 26.5h-165l5 130l-136 -166l-1 -14h35v-258q0 -44 -27 -72q55 -19 126 -76l90 78l-11 14l-28 -22l-53 44v291h94l81 -76l-140 -137q37 8 65 8q39 0 60.5 -17.5t21.5 -54.5q0 -29 -15 -51
q-10 -16 -43 -44l-48 -39q-21 -23 -21 -55q0 -29 19.5 -48.5t48.5 -19.5q26 8 26 19t-15 11q-6 0 -19 -3t-19 -3q-32 9 -32 38q0 34 33 54l82.5 45.5l33.5 19.5q63 40 63 107z" />
    <glyph glyph-name="ntilde" unicode="&#xf1;" horiz-adv-x="443" 
d="M357 643l-18 6l-15 -24q-27 -7 -30 -7q-25 0 -74 15q-50 15 -74 15q-40 0 -62 -40l-12 -23.5t-8 -16.5l17 -5l14 28h19q9 0 33.5 -5t66.5 -15q35 -8 59 -8q33 0 54 28zM410 68l-10 10l-21 -12q-21 14 -28 32v263l22 33t22 30l-10 11l-43 -34l-69 64q-22 -20 -54 -46
t-74 -57q0 67 -63 105l-82 -75l10 -11l16 11q24 -20 24 -46v-257l-28 -31l76 -64l72 64l-27 34v248l71 52l45 -39l1 -239q0 -43 11 -70q13 -28 49 -50z" />
    <glyph glyph-name="ograve" unicode="&#xf2;" horiz-adv-x="373" 
d="M277 540q-89 70 -150 147l-66 -22q61 -79 180 -140zM336 71v326q-65 9 -159 70q-62 -58 -142 -80v-237q0 -55 -27 -77q101 -21 180 -79q60 51 148 77zM242 348l-1 -275q-18 5 -44 15l-36.5 14l-34.5 14l1 276z" />
    <glyph glyph-name="oacute" unicode="&#xf3;" horiz-adv-x="373" 
d="M325 665l-70 22q-56 -71 -146 -147l35 -15q118 64 181 140zM336 71v326q-65 9 -159 70q-62 -58 -142 -80v-237q0 -55 -27 -77q101 -21 180 -79q60 51 148 77zM242 348l-1 -275q-18 5 -44 15l-36.5 14l-34.5 14l1 276z" />
    <glyph glyph-name="ocircumflex" unicode="&#xf4;" horiz-adv-x="373" 
d="M319 536q-28 32 -56 69.5t-56 80.5h-50q-27 -42 -55 -79t-57 -71l11 -10q42 23 73 48.5t54 51.5q42 -56 122 -100zM336 71v326q-65 9 -159 70q-62 -58 -142 -80v-237q0 -55 -27 -77q101 -21 180 -79q60 51 148 77zM242 348l-1 -275q-18 5 -44 15l-36.5 14l-34.5 14l1 276
z" />
    <glyph glyph-name="otilde" unicode="&#xf5;" horiz-adv-x="373" 
d="M329 643l-18 6l-15 -24q-5 0 -15.5 -3.5t-15.5 -3.5q-20 0 -93 21q-32 9 -54 9q-40 0 -62 -40l-12 -23.5t-8 -16.5l16 -5l16 28h18q10 0 34.5 -5t66.5 -15q35 -8 58 -8q34 0 55 28q14 27 29 52zM336 71v326q-65 9 -159 70q-62 -58 -142 -80v-237q0 -55 -27 -77
q101 -21 180 -79q60 51 148 77zM242 348l-1 -275q-18 5 -44 15l-36.5 14l-34.5 14l1 276z" />
    <glyph glyph-name="odieresis" unicode="&#xf6;" horiz-adv-x="373" 
d="M331 605q-16 14 -31 29l-30 30l-62 -56q9 -11 24 -25.5l35 -33.5zM152 605q-17 15 -32 30l-28 29l-64 -56l13 -14.5l15 -15.5l12 -12t18 -17zM336 71v326q-65 9 -159 70q-62 -58 -142 -80v-237q0 -55 -27 -77q101 -21 180 -79q60 51 148 77zM242 348l-1 -275
q-18 5 -44 15l-36.5 14l-34.5 14l1 276z" />
    <glyph glyph-name="divide" unicode="&#xf7;" horiz-adv-x="483" 
d="M312 453q-14 13 -33 32.5t-43 47.5l-80 -76q16 -22 34 -42t40 -37zM459 270v67h-430v-67h430zM312 147q-14 13 -33 32.5t-43 47.5l-80 -76q16 -22 34 -42t40 -37z" />
    <glyph glyph-name="oslash" unicode="&#xf8;" horiz-adv-x="373" 
d="M336 71v326q-25 5 -45 13l-39 16l27 99h-39l-25 -77q-2 2 -7 4t-12 6q-3 2 -7.5 4l-11.5 5q-62 -58 -142 -80v-237q0 -55 -27 -77q31 -8 55.5 -16t41.5 -18l-24 -109h37l26 90q12 -5 23 -11.5t21 -14.5q60 51 148 77zM246 353l-1 -285q-14 5 -27 9t-24 8l-16.5 5.5
l-13.5 4.5l64 263zM200 367l-64 -259l-13 3l1 286q40 -13 76 -30z" />
    <glyph glyph-name="ugrave" unicode="&#xf9;" horiz-adv-x="443" 
d="M302 540q-87 69 -148 147l-66 -22q62 -78 179 -140zM411 68l-10 10l-18 -12q-30 16 -30 32v285l29 25l-74 59l-71 -59l25 -30l-1 -251l-81 -58q-36 19 -36 48v266l30 24l-76 59l-96 -74l10 -11l23 14l18 -17v-264q0 -76 63 -116l143 102q0 -63 63 -106z" />
    <glyph glyph-name="uacute" unicode="&#xfa;" horiz-adv-x="443" 
d="M350 665l-68 22q-62 -78 -146 -147l35 -15q118 64 179 140zM411 68l-10 10l-18 -12q-30 16 -30 32v285l29 25l-74 59l-71 -59l25 -30l-1 -251l-81 -58q-36 19 -36 48v266l30 24l-76 59l-96 -74l10 -11l23 14l18 -17v-264q0 -76 63 -116l143 102q0 -63 63 -106z" />
    <glyph glyph-name="ucircumflex" unicode="&#xfb;" horiz-adv-x="443" 
d="M346 536q-68 75 -112 150h-53q-34 -60 -110 -150l12 -10q82 48 127 100q45 -57 121 -100zM411 68l-10 10l-18 -12q-30 16 -30 32v285l29 25l-74 59l-71 -59l25 -30l-1 -251l-81 -58q-36 19 -36 48v266l30 24l-76 59l-96 -74l10 -11l23 14l18 -17v-264q0 -76 63 -116
l143 102q0 -63 63 -106z" />
    <glyph glyph-name="udieresis" unicode="&#xfc;" horiz-adv-x="443" 
d="M357 605l-60 59l-64 -56l58 -59zM176 605l-28.5 27.5l-30.5 31.5l-63 -56l13 -14.5l15 -15.5l12 -12t18 -17zM411 68l-10 10l-18 -12q-30 16 -30 32v285l29 25l-74 59l-71 -59l25 -30l-1 -251l-81 -58q-36 19 -36 48v266l30 24l-76 59l-96 -74l10 -11l23 14l18 -17v-264
q0 -76 63 -116l143 102q0 -63 63 -106z" />
    <glyph glyph-name="yacute" unicode="&#xfd;" horiz-adv-x="382" 
d="M356 308q0 94 -61 158l-135 -106q0 73 -64 107l-96 -84l11 -13l32 23q24 -23 24 -47v-265q0 -13 -40 -65q-39 -53 -39 -83v-8q6 -57 102 -57h14q22 0 57 11q43 13 43 35q-2 7 -2 8q-4 7 -12 7q-13 0 -42 -26q-23 -17 -62 -17q-29 0 -51 11q-27 13 -27 41l-1 5q0 34 68 78
l52 28.5l40 21.5q81 41 130 95q59 65 59 142zM272 280q0 -53 -36 -108q-33 -48 -79 -83v245l68 53q47 -41 47 -107zM370 665l-68 22q-62 -78 -146 -147l35 -15q118 64 179 140z" />
    <glyph glyph-name="thorn" unicode="&#xfe;" horiz-adv-x="637" 
d="M602 69l-12 13l-19 -10q-17 23 -26 68q-6 28 -10.5 46.5t-8.5 26.5q-16 43 -56 72q32 32 55 53t37 32l-91 96l-130 -114v187q0 54 45 90q-58 -6 -95 -49l-14 -1q-27 22 -65 31q35 -35 35 -68v-132l-91 57q-28 -25 -58.5 -45t-64.5 -34v-255q0 -47 -27 -71q66 -14 138 -64
l49 35t35 26q18 -5 35.5 -12.5l34.5 -15.5l69 -36l96 101q11 -71 48 -98zM481 326l-141 -121v115l79 72zM458 124l-58 -60l-60 31v83l59 47q52 -44 59 -101zM247 133q0 -32 -7 -47l-28 -20l-88 44v284l90 -51l33 47v-257z" />
    <glyph glyph-name="ydieresis" unicode="&#xff;" 
d="M340 605l-28.5 27.5l-30.5 31.5l-65 -56l60 -58zM160 605l-60 59l-63 -56q9 -11 24 -25.5l35 -33.5zM366 308q0 94 -61 158l-135 -106q0 73 -64 107l-96 -84l11 -13l32 23q24 -23 24 -47v-265q0 -13 -40 -65q-39 -53 -39 -83v-8q4 -57 102 -57h14q22 0 57 11q43 13 43 35
q-2 7 -2 8q-4 7 -12 7q-13 0 -42 -26q-23 -17 -62 -17q-29 0 -51 11q-27 13 -27 41l-1 5q0 34 68 78l52 28.5l40 21.5q81 41 130 95q59 65 59 142zM282 280q0 -51 -35 -107q-32 -51 -77 -84l-3 245l68 53q47 -41 47 -107z" />
    <glyph glyph-name=".null" unicode="&#xe000;" horiz-adv-x="0" 
 />
    <glyph glyph-name="nonmarkingreturn" unicode="&#xe001;" horiz-adv-x="322" 
 />
    <glyph glyph-name="nonbreakingspace" unicode="&#xe002;" horiz-adv-x="500" 
 />
    <glyph glyph-name="minus" unicode="&#xe003;" horiz-adv-x="286" 
d="M256 314h-12l-13 -32l-187 -1l-38 -107h14l12 26h186z" />
    <glyph glyph-name="longs" unicode="&#xe004;" horiz-adv-x="267" 
d="M255 606l-95 23q-57 -50 -111 -74v-102h-41l-8 -51h49v-257q0 -49 -26 -75q56 -16 133 -75l44 40l44 40l-12 13l-23 -18l-65 35v450l91 -18z" />
    <glyph glyph-name="integral" unicode="&#xe005;" horiz-adv-x="496" 
d="M469 86l-11 12l-34 -28l-72 46v286h68l7 51h-75v102l86 -18l20 69l-96 23q-57 -51 -109 -74v-102h-98v102l86 -18l20 69l-96 23q-57 -51 -109 -74v-102h-44l-9 -51h51v-257q0 -47 -25 -72q90 -35 144 -76l75 67q35 -14 65.5 -30.5t56.5 -36.5zM251 145q0 -56 -25 -75
l-71 46v286h96v-257z" />
    <glyph glyph-name="approxequal" unicode="&#xe006;" horiz-adv-x="785" 
d="M751 104v244q0 73 -66 117l-140 -103v177q0 54 43 91q-52 0 -96 -50l-15 -1q-25 19 -62 33l-2 -2q34 -31 34 -100v-100l-91 57q-28 -25 -58.5 -45t-64.5 -34v-255q0 -53 -24 -63l-65 35v450l91 -18l20 69l-95 23q-57 -50 -111 -74v-102h-41l-8 -51h49v-257q0 -49 -26 -75
q56 -16 133 -75q45 43 69 63q53 -15 119 -60q16 10 39 27l37 28l73 -59l76 66l-26 29v247l79 59q32 -20 38 -47v-280q0 -72 -53 -111q-14 -10 -44.5 -24.5t-79.5 -33.5l3 -6q104 20 172 65q93 58 93 146zM447 92l-35 -26l-88 44v284l90 -51l33 47v-298z" />
    <glyph glyph-name="notequal" unicode="&#xe007;" horiz-adv-x="689" 
d="M673 75l-12 13l-24 -18l-73 46v421q0 54 49 90q-57 -8 -100 -46q-47 -41 -47 -97v-339q0 -56 -42 -75l-72 46v286h68l7 51h-75v102l86 -18l20 69l-96 23q-57 -51 -109 -74v-102h-98v102l86 -18l20 69l-96 23q-57 -51 -109 -74v-102h-44l-9 -51h51v-257q0 -47 -25 -72
q90 -35 144 -76l75 67q76 -31 122 -67l81 72q84 -31 131 -72zM251 145q0 -56 -25 -75l-71 46v286h96v-257z" />
    <glyph glyph-name="equivalence" unicode="&#xe008;" horiz-adv-x="492" 
d="M453 402v51h-102l-1 127l-98 -127h-97v102l86 -18l20 69l-96 23q-57 -51 -109 -74v-102h-44l-9 -51h51v-257q0 -47 -25 -72q90 -35 144 -76l75 67q23 -10 49.5 -27t55.5 -40l90 78l-11 14l-28 -22l-53 44v291h102zM254 145q0 -60 -27 -75l-72 46v286h99v-257z" />
    <glyph glyph-name="lessequal" unicode="&#xe009;" horiz-adv-x="618" 
d="M579 92v222q0 119 -100 153l-103 -97q-9 66 -69 98l-84 -75l11 -8l24 15q23 -14 23 -59v-228q-30 0 -58 -19q-9 -6 -22 -19l-57 30v450l91 -18l20 69l-95 23q-57 -50 -111 -74v-102h-41l-8 -51h49v-257q0 -49 -26 -75q56 -16 133 -75q10 11 18.5 19t15.5 14q44 38 73 38
q13 0 16 -4l2 -66q2 -59 -38 -107q19 3 39 15q5 4 14 10.5t20 16.5l22 -24t12 -11q25 -22 68 -28q-30 41 -38 67q-12 36 -9 68l3 36q55 -27 84 -39l36.5 32.5t21.5 17.5q34 25 63 42zM490 75q-28 10 -56.5 19t-59.5 17v229l60 53q9 -3 19 -9t18 -14t13.5 -16.5t5.5 -16.5
v-262z" />
    <glyph glyph-name="greaterequal" unicode="&#xe00a;" horiz-adv-x="470" 
d="M445 402v51h-102l-1 127l-131 -163l-1 -14h36v-258q0 -57 -37 -75l-65 35v450l91 -18l20 69l-95 23q-57 -50 -111 -74v-102h-41l-8 -51h49v-257q0 -49 -26 -75q56 -16 133 -75q10 10 39 36l22 20l18 16q49 -21 110 -70l90 78l-11 14l-28 -22l-53 44v291h102z" />
    <glyph glyph-name="house" unicode="&#xe00b;" horiz-adv-x="461" 
d="M429 402v51h-102l-1 127l-102 -127h-97l-1 127l-130 -163l-1 -14h35v-258q0 -44 -27 -72q55 -19 126 -76l88 71q55 -23 112 -71l90 78l-11 14l-28 -22l-53 44v291h102zM230 145q0 -33 -12 -52l-38 -26l-53 44v291h103v-257z" />
    <glyph glyph-name="apple" unicode="&#xe00c;" horiz-adv-x="1426" 
d="M1415 -37v837h-1404v-837h1404zM1390 562q0 -29 -22 -50t-51 -21h-146q-35 0 -35 -45v-302q0 -30 19 -42v-56q-72 16 -72 86v322q0 96 115 96q16 0 48 -3q17 -1 29 -1.5t20 -0.5q40 0 40 21q0 19 -41 19q-8 0 -20 -0.5t-28 -1.5t-27.5 -1.5t-19.5 -0.5q-116 0 -116 88
v131h57v-131q0 -35 37 -35h148q27 0 46 -21t19 -51zM1003 136q0 -39 -23.5 -63.5t-62.5 -24.5h-282q-30 0 -50 20t-20 50q0 31 18 52t47 21h279v-53h-270q-20 0 -20 -18q0 -21 22 -21h250q61 0 61 45v76q0 45 -45 45h-250q-42 0 -67 25t-25 67v89q0 45 26.5 73.5t71.5 28.5
h246q76 0 89 -76h-50q-20 21 -43 21h-244q-41 0 -41 -43v-95q0 -37 41 -37h246q45 0 70.5 -23t25.5 -65v-94zM496 800l-1 -684q0 -30 -21.5 -52t-51.5 -22q-32 0 -52 22t-20 55q0 62 -0.5 104t-1.5 65q-2 9 -87 93l-95 93q-14 14 -27 14q-10 0 -17 -6q-8 -27 -8 -32v-310
q0 -43 35 -43h81q13 6 25 21h53q-14 -72 -77 -72h-82q-88 0 -88 96v330q0 31 26 51q23 17 56 17t52 -19l179 -177q31 -31 31 -75v-151q0 -21 19 -21q6 0 12 7.5t6 13.5l-2 682h56z" />
  </font>
</defs>
</svg>
